<mxfile>
    <diagram id="uKI7ldMGaoaQeTL9wqTF" name="Page-1">
        <mxGraphModel dx="559" dy="234" grid="1" gridSize="10" guides="1" tooltips="1" connect="1" arrows="1" fold="1" page="1" pageScale="1" pageWidth="300" pageHeight="200" math="0" shadow="1">
            <root>
                <mxCell id="0"/>
                <mxCell id="1" parent="0"/>
                <mxCell id="lP6UJAzxdFz-D2vpFwy4-4" value="" style="verticalLabelPosition=bottom;align=center;html=1;verticalAlign=top;pointerEvents=1;dashed=0;shape=mxgraph.pid2valves.valve;valveType=gate;defState=closed;strokeWidth=4;fillColor=none;fontSize=17;rotation=312;strokeColor=#0000FF;" parent="1" vertex="1">
                    <mxGeometry x="1543" y="153" width="40" height="21.95" as="geometry"/>
                </mxCell>
                <mxCell id="lP6UJAzxdFz-D2vpFwy4-5" value="" style="verticalLabelPosition=bottom;align=center;html=1;verticalAlign=top;pointerEvents=1;dashed=0;shape=mxgraph.pid2valves.valve;valveType=gate;defState=closed;strokeWidth=4;fillColor=none;fontSize=17;rotation=230;fontColor=#0000FF;strokeColor=#0000FF;" parent="1" vertex="1">
                    <mxGeometry x="1437" y="551.05" width="40" height="21.95" as="geometry"/>
                </mxCell>
                <mxCell id="lP6UJAzxdFz-D2vpFwy4-6" value="" style="verticalLabelPosition=bottom;align=center;html=1;verticalAlign=top;pointerEvents=1;dashed=0;shape=mxgraph.pid2valves.valve;valveType=gate;defState=closed;strokeWidth=4;fillColor=none;fontSize=17;rotation=-30;strokeColor=#0000FF;" parent="1" vertex="1">
                    <mxGeometry x="1078" y="475" width="40" height="21.95" as="geometry"/>
                </mxCell>
                <mxCell id="lP6UJAzxdFz-D2vpFwy4-7" value="" style="verticalLabelPosition=bottom;align=center;html=1;verticalAlign=top;pointerEvents=1;dashed=0;shape=mxgraph.pid2valves.valve;valveType=gate;defState=closed;strokeWidth=4;fillColor=none;fontSize=17;rotation=-30;fontColor=#0000FF;strokeColor=#0000FF;" parent="1" vertex="1">
                    <mxGeometry x="1173" y="653" width="40" height="21.95" as="geometry"/>
                </mxCell>
                <mxCell id="lP6UJAzxdFz-D2vpFwy4-10" value="" style="verticalLabelPosition=bottom;align=center;outlineConnect=0;dashed=0;html=1;verticalAlign=top;shape=mxgraph.pid.flow_sensors.rotameter;strokeWidth=6;fillColor=none;fontSize=17;rotation=-90;strokeColor=#009900;" parent="1" vertex="1">
                    <mxGeometry x="677" y="654.42" width="33.41" height="19.11" as="geometry"/>
                </mxCell>
                <mxCell id="lP6UJAzxdFz-D2vpFwy4-11" value="" style="verticalLabelPosition=bottom;align=center;outlineConnect=0;dashed=0;html=1;verticalAlign=top;shape=mxgraph.pid.flow_sensors.rotameter;strokeWidth=5;fillColor=none;fontSize=17;rotation=-90;strokeColor=#009900;" parent="1" vertex="1">
                    <mxGeometry x="2506.59" y="1756" width="33.41" height="19.11" as="geometry"/>
                </mxCell>
                <mxCell id="lP6UJAzxdFz-D2vpFwy4-12" value="" style="endArrow=none;html=1;strokeWidth=4;" parent="1" edge="1">
                    <mxGeometry width="50" height="50" relative="1" as="geometry">
                        <mxPoint x="2780" y="1519" as="sourcePoint"/>
                        <mxPoint x="970" y="353" as="targetPoint"/>
                        <Array as="points">
                            <mxPoint x="2790" y="1301"/>
                            <mxPoint x="2540" y="1261"/>
                            <mxPoint x="2430" y="1251"/>
                            <mxPoint x="2400" y="1241"/>
                            <mxPoint x="2400" y="1201"/>
                            <mxPoint x="2390" y="1171"/>
                            <mxPoint x="2320" y="1141"/>
                            <mxPoint x="2280" y="1111"/>
                            <mxPoint x="2230" y="1081"/>
                            <mxPoint x="2080" y="1071"/>
                            <mxPoint x="2010" y="1061"/>
                            <mxPoint x="1940" y="1031"/>
                            <mxPoint x="1830" y="981"/>
                            <mxPoint x="1810" y="951"/>
                            <mxPoint x="1830" y="871"/>
                            <mxPoint x="1840" y="821"/>
                            <mxPoint x="1820" y="801"/>
                            <mxPoint x="1650" y="711"/>
                            <mxPoint x="1670" y="691"/>
                            <mxPoint x="1660" y="671"/>
                            <mxPoint x="1590" y="631"/>
                            <mxPoint x="1530" y="581"/>
                            <mxPoint x="1480" y="551"/>
                            <mxPoint x="1450" y="531"/>
                            <mxPoint x="1420" y="521"/>
                            <mxPoint x="1200" y="681"/>
                            <mxPoint x="1090" y="469"/>
                            <mxPoint x="1020" y="479"/>
                            <mxPoint x="1010" y="449"/>
                            <mxPoint x="1000" y="459"/>
                            <mxPoint x="980" y="459"/>
                        </Array>
                    </mxGeometry>
                </mxCell>
                <mxCell id="lP6UJAzxdFz-D2vpFwy4-14" value="4136" style="text;html=1;strokeColor=none;fillColor=none;align=center;verticalAlign=middle;whiteSpace=wrap;rounded=0;fontSize=33;opacity=20;fontStyle=1;strokeWidth=4;" parent="1" vertex="1">
                    <mxGeometry x="995" y="340.11" width="40" height="20" as="geometry"/>
                </mxCell>
                <mxCell id="lP6UJAzxdFz-D2vpFwy4-15" value="23" style="text;html=1;strokeColor=none;fillColor=none;align=center;verticalAlign=middle;whiteSpace=wrap;rounded=0;fontSize=33;opacity=20;fontStyle=1;strokeWidth=4;" parent="1" vertex="1">
                    <mxGeometry x="1020" y="551" width="40" height="20" as="geometry"/>
                </mxCell>
                <mxCell id="lP6UJAzxdFz-D2vpFwy4-16" value="" style="endArrow=none;html=1;strokeWidth=4;fontSize=33;" parent="1" edge="1">
                    <mxGeometry width="50" height="50" relative="1" as="geometry">
                        <mxPoint x="731" y="730.06" as="sourcePoint"/>
                        <mxPoint x="1111" y="510.05999999999995" as="targetPoint"/>
                        <Array as="points">
                            <mxPoint x="981" y="560.06"/>
                            <mxPoint x="1041" y="530.06"/>
                        </Array>
                    </mxGeometry>
                </mxCell>
                <mxCell id="lP6UJAzxdFz-D2vpFwy4-17" value="25" style="text;html=1;strokeColor=none;fillColor=none;align=center;verticalAlign=middle;whiteSpace=wrap;rounded=0;fontSize=33;opacity=20;fontStyle=1;strokeWidth=4;" parent="1" vertex="1">
                    <mxGeometry x="858" y="660" width="40" height="20" as="geometry"/>
                </mxCell>
                <mxCell id="lP6UJAzxdFz-D2vpFwy4-18" value="24" style="text;html=1;strokeColor=none;fillColor=none;align=center;verticalAlign=middle;whiteSpace=wrap;rounded=0;fontSize=33;opacity=20;fontStyle=1;strokeWidth=4;" parent="1" vertex="1">
                    <mxGeometry x="947" y="591" width="40" height="20" as="geometry"/>
                </mxCell>
                <mxCell id="lP6UJAzxdFz-D2vpFwy4-19" value="20" style="text;html=1;strokeColor=none;fillColor=none;align=center;verticalAlign=middle;whiteSpace=wrap;rounded=0;fontSize=33;opacity=20;fontStyle=1;strokeWidth=4;" parent="1" vertex="1">
                    <mxGeometry x="1110" y="591" width="40" height="20" as="geometry"/>
                </mxCell>
                <mxCell id="lP6UJAzxdFz-D2vpFwy4-21" value="41" style="text;html=1;strokeColor=none;fillColor=none;align=center;verticalAlign=middle;whiteSpace=wrap;rounded=0;fontSize=33;opacity=20;fontStyle=1;strokeWidth=4;" parent="1" vertex="1">
                    <mxGeometry x="1171" y="601" width="40" height="20" as="geometry"/>
                </mxCell>
                <mxCell id="lP6UJAzxdFz-D2vpFwy4-22" value="" style="endArrow=none;html=1;strokeWidth=4;fontSize=33;" parent="1" edge="1">
                    <mxGeometry width="50" height="50" relative="1" as="geometry">
                        <mxPoint x="1275" y="628" as="sourcePoint"/>
                        <mxPoint x="1223" y="528" as="targetPoint"/>
                    </mxGeometry>
                </mxCell>
                <mxCell id="lP6UJAzxdFz-D2vpFwy4-23" value="" style="endArrow=none;html=1;strokeWidth=4;fontSize=33;" parent="1" edge="1">
                    <mxGeometry width="50" height="50" relative="1" as="geometry">
                        <mxPoint x="1342" y="581" as="sourcePoint"/>
                        <mxPoint x="1291" y="491" as="targetPoint"/>
                    </mxGeometry>
                </mxCell>
                <mxCell id="lP6UJAzxdFz-D2vpFwy4-24" value="4130" style="text;html=1;strokeColor=none;fillColor=none;align=center;verticalAlign=middle;whiteSpace=wrap;rounded=0;fontSize=33;opacity=20;fontStyle=1;strokeWidth=4;" parent="1" vertex="1">
                    <mxGeometry x="1197" y="493" width="40" height="20" as="geometry"/>
                </mxCell>
                <mxCell id="lP6UJAzxdFz-D2vpFwy4-26" value="&lt;b&gt;18&lt;/b&gt;" style="text;html=1;strokeColor=none;fillColor=none;align=center;verticalAlign=middle;whiteSpace=wrap;rounded=0;fontSize=33;opacity=20;strokeWidth=4;" parent="1" vertex="1">
                    <mxGeometry x="1268.5" y="465.05999999999995" width="40" height="20" as="geometry"/>
                </mxCell>
                <mxCell id="lP6UJAzxdFz-D2vpFwy4-28" value="" style="endArrow=none;html=1;strokeWidth=4;fontSize=33;" parent="1" edge="1">
                    <mxGeometry width="50" height="50" relative="1" as="geometry">
                        <mxPoint x="1041" y="1032.6666666666667" as="sourcePoint"/>
                        <mxPoint x="1473" y="548" as="targetPoint"/>
                        <Array as="points">
                            <mxPoint x="1090" y="971"/>
                            <mxPoint x="1120" y="981"/>
                            <mxPoint x="1140" y="971"/>
                            <mxPoint x="1240" y="791"/>
                            <mxPoint x="1360" y="641"/>
                            <mxPoint x="1410" y="601"/>
                        </Array>
                    </mxGeometry>
                </mxCell>
                <mxCell id="lP6UJAzxdFz-D2vpFwy4-29" value="4" style="text;html=1;strokeColor=none;fillColor=none;align=center;verticalAlign=middle;whiteSpace=wrap;rounded=0;fontSize=33;opacity=20;fontStyle=1;strokeWidth=4;" parent="1" vertex="1">
                    <mxGeometry x="1379" y="629" width="40" height="20" as="geometry"/>
                </mxCell>
                <mxCell id="lP6UJAzxdFz-D2vpFwy4-30" value="6" style="text;html=1;strokeColor=none;fillColor=none;align=center;verticalAlign=middle;whiteSpace=wrap;rounded=0;fontSize=33;opacity=20;fontStyle=1;strokeWidth=4;" parent="1" vertex="1">
                    <mxGeometry x="1318" y="691" width="40" height="20" as="geometry"/>
                </mxCell>
                <mxCell id="lP6UJAzxdFz-D2vpFwy4-31" value="17" style="text;html=1;strokeColor=none;fillColor=none;align=center;verticalAlign=middle;whiteSpace=wrap;rounded=0;fontSize=33;opacity=20;fontStyle=1;strokeWidth=4;" parent="1" vertex="1">
                    <mxGeometry x="1268.5" y="761" width="40" height="20" as="geometry"/>
                </mxCell>
                <mxCell id="lP6UJAzxdFz-D2vpFwy4-32" value="16" style="text;html=1;strokeColor=none;fillColor=none;align=center;verticalAlign=middle;whiteSpace=wrap;rounded=0;fontSize=33;opacity=20;fontStyle=1;strokeWidth=4;" parent="1" vertex="1">
                    <mxGeometry x="1222" y="839" width="40" height="20" as="geometry"/>
                </mxCell>
                <mxCell id="lP6UJAzxdFz-D2vpFwy4-33" value="15" style="text;html=1;strokeColor=none;fillColor=none;align=center;verticalAlign=middle;whiteSpace=wrap;rounded=0;fontSize=33;opacity=20;fontStyle=1;strokeWidth=4;" parent="1" vertex="1">
                    <mxGeometry x="1174" y="917" width="40" height="20" as="geometry"/>
                </mxCell>
                <mxCell id="lP6UJAzxdFz-D2vpFwy4-34" value="43" style="text;html=1;strokeColor=none;fillColor=none;align=center;verticalAlign=middle;whiteSpace=wrap;rounded=0;fontSize=33;opacity=20;fontStyle=1;strokeWidth=4;" parent="1" vertex="1">
                    <mxGeometry x="1078" y="991" width="40" height="20" as="geometry"/>
                </mxCell>
                <mxCell id="lP6UJAzxdFz-D2vpFwy4-35" value="44" style="text;html=1;strokeColor=none;fillColor=none;align=center;verticalAlign=middle;whiteSpace=wrap;rounded=0;fontSize=33;opacity=20;fontStyle=1;strokeWidth=4;" parent="1" vertex="1">
                    <mxGeometry x="1032" y="1039" width="40" height="20" as="geometry"/>
                </mxCell>
                <mxCell id="lP6UJAzxdFz-D2vpFwy4-36" value="" style="endArrow=none;html=1;strokeWidth=4;fontSize=33;fillColor=#dae8fc;strokeColor=#6c8ebf;" parent="1" edge="1">
                    <mxGeometry width="50" height="50" relative="1" as="geometry">
                        <mxPoint x="1200" y="2103" as="sourcePoint"/>
                        <mxPoint x="2323" y="534" as="targetPoint"/>
                        <Array as="points">
                            <mxPoint x="1290" y="1861"/>
                            <mxPoint x="1410" y="1611"/>
                            <mxPoint x="1520" y="1371"/>
                            <mxPoint x="1690" y="1081"/>
                            <mxPoint x="1740" y="981"/>
                            <mxPoint x="1810" y="881"/>
                            <mxPoint x="1940" y="771"/>
                        </Array>
                    </mxGeometry>
                </mxCell>
                <mxCell id="lP6UJAzxdFz-D2vpFwy4-37" value="" style="endArrow=none;html=1;strokeWidth=4;fontSize=33;" parent="1" edge="1">
                    <mxGeometry width="50" height="50" relative="1" as="geometry">
                        <mxPoint x="1530" y="581" as="sourcePoint"/>
                        <mxPoint x="1910" y="91" as="targetPoint"/>
                        <Array as="points">
                            <mxPoint x="1690" y="401"/>
                            <mxPoint x="1760" y="341"/>
                            <mxPoint x="1820" y="281"/>
                            <mxPoint x="1850" y="171"/>
                        </Array>
                    </mxGeometry>
                </mxCell>
                <mxCell id="lP6UJAzxdFz-D2vpFwy4-38" value="" style="verticalLabelPosition=bottom;align=center;html=1;verticalAlign=top;pointerEvents=1;dashed=0;shape=mxgraph.pid2valves.valve;valveType=gate;defState=closed;strokeWidth=4;fillColor=none;fontSize=17;rotation=-155;fontColor=#0000FF;strokeColor=#0000FF;" parent="1" vertex="1">
                    <mxGeometry x="1843" y="1010.05" width="40" height="21.95" as="geometry"/>
                </mxCell>
                <mxCell id="lP6UJAzxdFz-D2vpFwy4-39" value="" style="verticalLabelPosition=bottom;align=center;html=1;verticalAlign=top;pointerEvents=1;dashed=0;shape=mxgraph.pid2valves.valve;valveType=gate;defState=closed;strokeWidth=4;fillColor=none;fontSize=17;rotation=-30;fontColor=#0000FF;strokeColor=#0000FF;" parent="1" vertex="1">
                    <mxGeometry x="1391" y="488.11" width="40" height="21.95" as="geometry"/>
                </mxCell>
                <mxCell id="lP6UJAzxdFz-D2vpFwy4-40" value="" style="verticalLabelPosition=bottom;align=center;html=1;verticalAlign=top;pointerEvents=1;dashed=0;shape=mxgraph.pid2valves.valve;valveType=gate;defState=closed;strokeWidth=4;fillColor=none;fontSize=17;rotation=227;fontColor=#0000FF;strokeColor=#0000FF;" parent="1" vertex="1">
                    <mxGeometry x="1525" y="552.0500000000001" width="40" height="21.95" as="geometry"/>
                </mxCell>
                <mxCell id="lP6UJAzxdFz-D2vpFwy4-41" value="" style="verticalLabelPosition=bottom;align=center;html=1;verticalAlign=top;pointerEvents=1;dashed=0;shape=mxgraph.pid2valves.valve;valveType=gate;defState=closed;strokeWidth=4;fillColor=none;fontSize=17;rotation=-60;fontColor=#0000FF;strokeColor=#0000FF;" parent="1" vertex="1">
                    <mxGeometry x="1781" y="777" width="40" height="21.95" as="geometry"/>
                </mxCell>
                <mxCell id="lP6UJAzxdFz-D2vpFwy4-42" value="" style="endArrow=none;html=1;strokeWidth=4;fontSize=33;" parent="1" edge="1">
                    <mxGeometry width="50" height="50" relative="1" as="geometry">
                        <mxPoint x="1609" y="641" as="sourcePoint"/>
                        <mxPoint x="1651" y="584" as="targetPoint"/>
                        <Array as="points"/>
                    </mxGeometry>
                </mxCell>
                <mxCell id="lP6UJAzxdFz-D2vpFwy4-43" value="5" style="text;html=1;strokeColor=none;fillColor=none;align=center;verticalAlign=middle;whiteSpace=wrap;rounded=0;fontSize=33;opacity=20;fontStyle=1;strokeWidth=4;" parent="1" vertex="1">
                    <mxGeometry x="1654" y="563" width="40" height="20" as="geometry"/>
                </mxCell>
                <mxCell id="lP6UJAzxdFz-D2vpFwy4-44" value="39" style="text;html=1;strokeColor=none;fillColor=none;align=center;verticalAlign=middle;whiteSpace=wrap;rounded=0;fontSize=33;opacity=20;fontStyle=1;strokeWidth=4;" parent="1" vertex="1">
                    <mxGeometry x="1480" y="528" width="40" height="20" as="geometry"/>
                </mxCell>
                <mxCell id="lP6UJAzxdFz-D2vpFwy4-46" value="&lt;b&gt;92&lt;/b&gt;" style="text;html=1;strokeColor=none;fillColor=none;align=center;verticalAlign=middle;whiteSpace=wrap;rounded=0;fontSize=33;opacity=20;strokeWidth=4;" parent="1" vertex="1">
                    <mxGeometry x="1551" y="482.05999999999995" width="40" height="20" as="geometry"/>
                </mxCell>
                <mxCell id="lP6UJAzxdFz-D2vpFwy4-47" value="&lt;span style=&quot;&quot;&gt;&lt;span&gt;93&lt;/span&gt;&lt;/span&gt;" style="text;html=1;strokeColor=none;fillColor=none;align=center;verticalAlign=middle;whiteSpace=wrap;rounded=0;fontSize=33;opacity=20;fontStyle=0;strokeWidth=4;fontColor=#FF0000;" parent="1" vertex="1">
                    <mxGeometry x="1610" y="493.95000000000005" width="40" height="20" as="geometry"/>
                </mxCell>
                <mxCell id="lP6UJAzxdFz-D2vpFwy4-48" value="9" style="text;html=1;strokeColor=none;fillColor=none;align=center;verticalAlign=middle;whiteSpace=wrap;rounded=0;fontSize=33;opacity=20;fontStyle=1;strokeWidth=4;" parent="1" vertex="1">
                    <mxGeometry x="1732" y="731" width="40" height="20" as="geometry"/>
                </mxCell>
                <mxCell id="lP6UJAzxdFz-D2vpFwy4-49" value="&lt;b&gt;8&lt;/b&gt;" style="text;html=1;strokeColor=none;fillColor=none;align=center;verticalAlign=middle;whiteSpace=wrap;rounded=0;fontSize=33;opacity=20;strokeWidth=4;" parent="1" vertex="1">
                    <mxGeometry x="1830" y="791" width="40" height="20" as="geometry"/>
                </mxCell>
                <mxCell id="lP6UJAzxdFz-D2vpFwy4-51" value="" style="endArrow=none;html=1;strokeWidth=4;fontSize=33;" parent="1" edge="1">
                    <mxGeometry width="50" height="50" relative="1" as="geometry">
                        <mxPoint x="1425" y="521" as="sourcePoint"/>
                        <mxPoint x="960" y="221" as="targetPoint"/>
                        <Array as="points">
                            <mxPoint x="1380" y="441"/>
                            <mxPoint x="1390" y="421"/>
                            <mxPoint x="1430" y="381"/>
                            <mxPoint x="1550" y="281"/>
                            <mxPoint x="1610" y="211"/>
                            <mxPoint x="1530" y="131"/>
                            <mxPoint x="1480" y="101"/>
                            <mxPoint x="1340" y="61"/>
                            <mxPoint x="1200" y="51"/>
                            <mxPoint x="1070" y="51"/>
                            <mxPoint x="1000" y="51"/>
                            <mxPoint x="960" y="81"/>
                            <mxPoint x="950" y="141"/>
                        </Array>
                    </mxGeometry>
                </mxCell>
                <mxCell id="lP6UJAzxdFz-D2vpFwy4-52" value="133" style="text;html=1;strokeColor=none;fillColor=none;align=center;verticalAlign=middle;whiteSpace=wrap;rounded=0;fontSize=33;opacity=20;fontStyle=1;strokeWidth=4;" parent="1" vertex="1">
                    <mxGeometry x="908" y="214" width="40" height="20" as="geometry"/>
                </mxCell>
                <mxCell id="lP6UJAzxdFz-D2vpFwy4-53" value="&lt;span style=&quot;&quot;&gt;&lt;span&gt;132&lt;/span&gt;&lt;/span&gt;" style="text;html=1;strokeColor=none;fillColor=none;align=center;verticalAlign=middle;whiteSpace=wrap;rounded=0;fontSize=33;opacity=20;fontStyle=0;fontColor=#FF0000;strokeWidth=4;" parent="1" vertex="1">
                    <mxGeometry x="1137" y="66" width="40" height="20" as="geometry"/>
                </mxCell>
                <mxCell id="lP6UJAzxdFz-D2vpFwy4-54" value="131" style="text;html=1;strokeColor=none;fillColor=none;align=center;verticalAlign=middle;whiteSpace=wrap;rounded=0;fontSize=33;opacity=20;fontStyle=1;strokeWidth=4;" parent="1" vertex="1">
                    <mxGeometry x="1270.5" y="78" width="40" height="20" as="geometry"/>
                </mxCell>
                <mxCell id="lP6UJAzxdFz-D2vpFwy4-55" value="19" style="text;html=1;strokeColor=none;fillColor=none;align=center;verticalAlign=middle;whiteSpace=wrap;rounded=0;fontSize=33;opacity=20;fontStyle=1;strokeWidth=4;" parent="1" vertex="1">
                    <mxGeometry x="1530" y="301" width="40" height="20" as="geometry"/>
                </mxCell>
                <mxCell id="lP6UJAzxdFz-D2vpFwy4-56" value="3" style="text;html=1;strokeColor=none;fillColor=none;align=center;verticalAlign=middle;whiteSpace=wrap;rounded=0;fontSize=33;opacity=20;fontStyle=1;strokeWidth=4;" parent="1" vertex="1">
                    <mxGeometry x="1430" y="391" width="40" height="20" as="geometry"/>
                </mxCell>
                <mxCell id="lP6UJAzxdFz-D2vpFwy4-57" value="" style="endArrow=none;html=1;strokeWidth=4;fontSize=33;" parent="1" edge="1">
                    <mxGeometry width="50" height="50" relative="1" as="geometry">
                        <mxPoint x="1293" y="241" as="sourcePoint"/>
                        <mxPoint x="1427" y="383" as="targetPoint"/>
                        <Array as="points">
                            <mxPoint x="1320" y="281"/>
                            <mxPoint x="1330" y="321"/>
                            <mxPoint x="1370" y="321"/>
                        </Array>
                    </mxGeometry>
                </mxCell>
                <mxCell id="lP6UJAzxdFz-D2vpFwy4-58" value="2" style="text;html=1;strokeColor=none;fillColor=none;align=center;verticalAlign=middle;whiteSpace=wrap;rounded=0;fontSize=33;opacity=20;fontStyle=1;strokeWidth=4;" parent="1" vertex="1">
                    <mxGeometry x="1290" y="214" width="40" height="20" as="geometry"/>
                </mxCell>
                <mxCell id="lP6UJAzxdFz-D2vpFwy4-59" value="126" style="text;html=1;strokeColor=none;fillColor=none;align=center;verticalAlign=middle;whiteSpace=wrap;rounded=0;fontSize=33;opacity=20;fontStyle=1;strokeWidth=4;" parent="1" vertex="1">
                    <mxGeometry x="1330" y="264" width="40" height="20" as="geometry"/>
                </mxCell>
                <mxCell id="lP6UJAzxdFz-D2vpFwy4-61" value="" style="verticalLabelPosition=bottom;align=center;html=1;verticalAlign=top;pointerEvents=1;dashed=0;shape=mxgraph.pid2valves.valve;valveType=gate;defState=closed;strokeWidth=4;fillColor=none;fontSize=17;rotation=-45;strokeColor=#0000FF;" parent="1" vertex="1">
                    <mxGeometry x="1716" y="313.53000000000003" width="40" height="21.95" as="geometry"/>
                </mxCell>
                <mxCell id="lP6UJAzxdFz-D2vpFwy4-62" value="" style="verticalLabelPosition=bottom;align=center;html=1;verticalAlign=top;pointerEvents=1;dashed=0;shape=mxgraph.pid2valves.valve;valveType=gate;defState=closed;strokeWidth=4;fillColor=none;fontSize=17;rotation=-150;fontColor=#0000FF;strokeColor=#0000FF;" parent="1" vertex="1">
                    <mxGeometry x="1678" y="761.0000000000001" width="40" height="21.95" as="geometry"/>
                </mxCell>
                <mxCell id="lP6UJAzxdFz-D2vpFwy4-63" value="" style="verticalLabelPosition=bottom;align=center;html=1;verticalAlign=top;pointerEvents=1;dashed=0;shape=mxgraph.pid2valves.valve;valveType=gate;defState=closed;strokeWidth=4;fillColor=none;fontSize=17;rotation=-141;fontColor=#0000FF;strokeColor=#0000FF;" parent="1" vertex="1">
                    <mxGeometry x="1565" y="653.0000000000001" width="40" height="21.95" as="geometry"/>
                </mxCell>
                <mxCell id="lP6UJAzxdFz-D2vpFwy4-64" value="27" style="text;html=1;strokeColor=none;fillColor=none;align=center;verticalAlign=middle;whiteSpace=wrap;rounded=0;fontSize=33;opacity=20;fontStyle=1;strokeWidth=4;" parent="1" vertex="1">
                    <mxGeometry x="1344" y="463.05999999999995" width="40" height="20" as="geometry"/>
                </mxCell>
                <mxCell id="lP6UJAzxdFz-D2vpFwy4-65" value="" style="endArrow=none;html=1;strokeWidth=4;fontSize=33;" parent="1" edge="1">
                    <mxGeometry width="50" height="50" relative="1" as="geometry">
                        <mxPoint x="1350" y="941" as="sourcePoint"/>
                        <mxPoint x="1604" y="641" as="targetPoint"/>
                    </mxGeometry>
                </mxCell>
                <mxCell id="lP6UJAzxdFz-D2vpFwy4-66" value="11" style="text;html=1;strokeColor=none;fillColor=none;align=center;verticalAlign=middle;whiteSpace=wrap;rounded=0;fontSize=33;opacity=20;fontStyle=1;strokeWidth=4;" parent="1" vertex="1">
                    <mxGeometry x="1518" y="664" width="40" height="20" as="geometry"/>
                </mxCell>
                <mxCell id="lP6UJAzxdFz-D2vpFwy4-67" value="14" style="text;html=1;strokeColor=none;fillColor=none;align=center;verticalAlign=middle;whiteSpace=wrap;rounded=0;fontSize=33;opacity=20;fontStyle=1;strokeWidth=4;" parent="1" vertex="1">
                    <mxGeometry x="1503" y="761" width="40" height="20" as="geometry"/>
                </mxCell>
                <mxCell id="lP6UJAzxdFz-D2vpFwy4-69" value="12" style="text;html=1;strokeColor=none;fillColor=none;align=center;verticalAlign=middle;whiteSpace=wrap;rounded=0;fontSize=33;opacity=20;fontStyle=1;strokeWidth=4;" parent="1" vertex="1">
                    <mxGeometry x="1434" y="851" width="40" height="20" as="geometry"/>
                </mxCell>
                <mxCell id="lP6UJAzxdFz-D2vpFwy4-71" value="13" style="text;html=1;strokeColor=none;fillColor=none;align=center;verticalAlign=middle;whiteSpace=wrap;rounded=0;fontSize=33;opacity=20;fontStyle=1;strokeWidth=4;" parent="1" vertex="1">
                    <mxGeometry x="1330" y="951" width="40" height="20" as="geometry"/>
                </mxCell>
                <mxCell id="lP6UJAzxdFz-D2vpFwy4-72" value="7" style="text;html=1;strokeColor=none;fillColor=none;align=center;verticalAlign=middle;whiteSpace=wrap;rounded=0;fontSize=33;opacity=20;fontStyle=1;strokeWidth=4;" parent="1" vertex="1">
                    <mxGeometry x="1618" y="721" width="40" height="20" as="geometry"/>
                </mxCell>
                <mxCell id="lP6UJAzxdFz-D2vpFwy4-73" value="" style="endArrow=none;html=1;strokeWidth=4;fontSize=33;" parent="1" edge="1">
                    <mxGeometry width="50" height="50" relative="1" as="geometry">
                        <mxPoint x="1320" y="1363" as="sourcePoint"/>
                        <mxPoint x="1716" y="745" as="targetPoint"/>
                        <Array as="points">
                            <mxPoint x="1520" y="1061"/>
                        </Array>
                    </mxGeometry>
                </mxCell>
                <mxCell id="lP6UJAzxdFz-D2vpFwy4-75" value="45" style="text;html=1;strokeColor=none;fillColor=none;align=center;verticalAlign=middle;whiteSpace=wrap;rounded=0;fontSize=33;opacity=20;fontStyle=1;strokeWidth=4;" parent="1" vertex="1">
                    <mxGeometry x="1600" y="845" width="40" height="20" as="geometry"/>
                </mxCell>
                <mxCell id="lP6UJAzxdFz-D2vpFwy4-77" value="21" style="text;html=1;strokeColor=none;fillColor=none;align=center;verticalAlign=middle;whiteSpace=wrap;rounded=0;fontSize=33;opacity=20;fontStyle=1;strokeWidth=4;" parent="1" vertex="1">
                    <mxGeometry x="1618" y="914" width="40" height="20" as="geometry"/>
                </mxCell>
                <mxCell id="lP6UJAzxdFz-D2vpFwy4-78" value="48" style="text;html=1;strokeColor=none;fillColor=none;align=center;verticalAlign=middle;whiteSpace=wrap;rounded=0;fontSize=33;opacity=20;fontStyle=1;strokeWidth=4;" parent="1" vertex="1">
                    <mxGeometry x="1530" y="958.05" width="40" height="20" as="geometry"/>
                </mxCell>
                <mxCell id="lP6UJAzxdFz-D2vpFwy4-79" value="10" style="text;html=1;strokeColor=none;fillColor=none;align=center;verticalAlign=middle;whiteSpace=wrap;rounded=0;fontSize=33;opacity=20;fontStyle=1;strokeWidth=4;" parent="1" vertex="1">
                    <mxGeometry x="1503" y="1101" width="40" height="20" as="geometry"/>
                </mxCell>
                <mxCell id="lP6UJAzxdFz-D2vpFwy4-80" value="123" style="text;html=1;strokeColor=none;fillColor=none;align=center;verticalAlign=middle;whiteSpace=wrap;rounded=0;fontSize=33;opacity=20;fontStyle=1;strokeWidth=4;" parent="1" vertex="1">
                    <mxGeometry x="1456" y="1174" width="40" height="20" as="geometry"/>
                </mxCell>
                <mxCell id="lP6UJAzxdFz-D2vpFwy4-81" value="166" style="text;html=1;strokeColor=none;fillColor=none;align=center;verticalAlign=middle;whiteSpace=wrap;rounded=0;fontSize=33;opacity=20;fontStyle=1;strokeWidth=4;" parent="1" vertex="1">
                    <mxGeometry x="1339" y="1229.05" width="40" height="20" as="geometry"/>
                </mxCell>
                <mxCell id="lP6UJAzxdFz-D2vpFwy4-82" value="46" style="text;html=1;strokeColor=none;fillColor=none;align=center;verticalAlign=middle;whiteSpace=wrap;rounded=0;fontSize=33;opacity=20;fontStyle=1;strokeWidth=4;" parent="1" vertex="1">
                    <mxGeometry x="1270.5" y="1339" width="40" height="20" as="geometry"/>
                </mxCell>
                <mxCell id="lP6UJAzxdFz-D2vpFwy4-86" value="" style="endArrow=none;html=1;strokeWidth=4;fontSize=24;fillColor=#dae8fc;strokeColor=#6c8ebf;" parent="1" edge="1">
                    <mxGeometry width="50" height="50" relative="1" as="geometry">
                        <mxPoint x="1210" y="2112" as="sourcePoint"/>
                        <mxPoint x="2323" y="548" as="targetPoint"/>
                        <Array as="points">
                            <mxPoint x="1310" y="1861"/>
                            <mxPoint x="1410" y="1631"/>
                            <mxPoint x="1530" y="1391"/>
                            <mxPoint x="1660" y="1151"/>
                            <mxPoint x="1780" y="941"/>
                            <mxPoint x="1850" y="861"/>
                            <mxPoint x="1950" y="781"/>
                            <mxPoint x="2060" y="711"/>
                            <mxPoint x="2210" y="621"/>
                        </Array>
                    </mxGeometry>
                </mxCell>
                <mxCell id="lP6UJAzxdFz-D2vpFwy4-91" value="RAMBLA LECHUGA" style="text;html=1;strokeColor=none;fillColor=none;align=center;verticalAlign=middle;whiteSpace=wrap;rounded=0;fontSize=25;fontStyle=1;rotation=299;strokeWidth=4;" parent="1" vertex="1">
                    <mxGeometry x="1384" y="1322" width="260" height="20" as="geometry"/>
                </mxCell>
                <mxCell id="lP6UJAzxdFz-D2vpFwy4-96" value="" style="endArrow=classic;html=1;strokeWidth=4;fontSize=25;exitX=0.25;exitY=1;exitDx=0;exitDy=0;strokeColor=#666600;" parent="1" source="14" edge="1">
                    <mxGeometry width="50" height="50" relative="1" as="geometry">
                        <mxPoint x="2506" y="1174" as="sourcePoint"/>
                        <mxPoint x="2420" y="1281" as="targetPoint"/>
                    </mxGeometry>
                </mxCell>
                <mxCell id="lP6UJAzxdFz-D2vpFwy4-111" value="" style="endArrow=classic;html=1;strokeWidth=4;fontSize=32;" parent="1" edge="1">
                    <mxGeometry width="50" height="50" relative="1" as="geometry">
                        <mxPoint x="160" y="731" as="sourcePoint"/>
                        <mxPoint x="10" y="581" as="targetPoint"/>
                    </mxGeometry>
                </mxCell>
                <mxCell id="lP6UJAzxdFz-D2vpFwy4-114" value="SECTOR - VA" style="text;html=1;strokeColor=none;fillColor=none;align=center;verticalAlign=middle;whiteSpace=wrap;rounded=0;fontSize=82;fontStyle=1;strokeWidth=4;" parent="1" vertex="1">
                    <mxGeometry x="2048" y="292" width="650" height="20" as="geometry"/>
                </mxCell>
                <mxCell id="lP6UJAzxdFz-D2vpFwy4-115" value="&lt;font style=&quot;font-size: 46px&quot;&gt;Actualizado: 04/05/2021&lt;/font&gt;" style="text;html=1;strokeColor=none;fillColor=none;align=center;verticalAlign=middle;whiteSpace=wrap;rounded=0;fontSize=80;fontStyle=1;strokeWidth=4;" parent="1" vertex="1">
                    <mxGeometry x="2050" y="324.53" width="660" height="100.89" as="geometry"/>
                </mxCell>
                <mxCell id="lP6UJAzxdFz-D2vpFwy4-118" value="" style="endArrow=none;html=1;strokeWidth=4;fontSize=33;" parent="1" edge="1">
                    <mxGeometry width="50" height="50" relative="1" as="geometry">
                        <mxPoint x="1690" y="261" as="sourcePoint"/>
                        <mxPoint x="1753" y="344" as="targetPoint"/>
                    </mxGeometry>
                </mxCell>
                <mxCell id="lP6UJAzxdFz-D2vpFwy4-120" value="107" style="text;html=1;strokeColor=none;fillColor=none;align=center;verticalAlign=middle;whiteSpace=wrap;rounded=0;fontSize=33;fontStyle=1;strokeWidth=4;" parent="1" vertex="1">
                    <mxGeometry x="1732" y="281" width="40" height="20" as="geometry"/>
                </mxCell>
                <mxCell id="lP6UJAzxdFz-D2vpFwy4-121" value="100" style="text;html=1;strokeColor=none;fillColor=none;align=center;verticalAlign=middle;whiteSpace=wrap;rounded=0;fontSize=33;fontStyle=1;strokeWidth=4;" parent="1" vertex="1">
                    <mxGeometry x="1703" y="242" width="40" height="20" as="geometry"/>
                </mxCell>
                <mxCell id="lP6UJAzxdFz-D2vpFwy4-122" value="101" style="text;html=1;strokeColor=none;fillColor=none;align=center;verticalAlign=middle;whiteSpace=wrap;rounded=0;fontSize=33;fontStyle=1;strokeWidth=4;" parent="1" vertex="1">
                    <mxGeometry x="1630" y="251" width="40" height="20" as="geometry"/>
                </mxCell>
                <mxCell id="lP6UJAzxdFz-D2vpFwy4-123" value="" style="endArrow=none;html=1;strokeWidth=4;fontSize=33;" parent="1" edge="1">
                    <mxGeometry width="50" height="50" relative="1" as="geometry">
                        <mxPoint x="2020" y="671" as="sourcePoint"/>
                        <mxPoint x="1752" y="344" as="targetPoint"/>
                    </mxGeometry>
                </mxCell>
                <mxCell id="lP6UJAzxdFz-D2vpFwy4-124" value="" style="verticalLabelPosition=bottom;align=center;html=1;verticalAlign=top;pointerEvents=1;dashed=0;shape=mxgraph.pid2valves.valve;valveType=gate;defState=closed;strokeWidth=4;fillColor=none;fontSize=17;rotation=281;strokeColor=#0000FF;" parent="1" vertex="1">
                    <mxGeometry x="2617" y="1267.05" width="40" height="21.95" as="geometry"/>
                </mxCell>
                <mxCell id="lP6UJAzxdFz-D2vpFwy4-125" value="" style="verticalLabelPosition=bottom;align=center;html=1;verticalAlign=top;pointerEvents=1;dashed=0;shape=mxgraph.pid2valves.valve;valveType=gate;defState=closed;strokeWidth=4;fillColor=none;fontSize=17;rotation=-75;strokeColor=#0000FF;" parent="1" vertex="1">
                    <mxGeometry x="2593" y="869.0000000000002" width="40" height="21.95" as="geometry"/>
                </mxCell>
                <mxCell id="lP6UJAzxdFz-D2vpFwy4-126" value="" style="verticalLabelPosition=bottom;align=center;html=1;verticalAlign=top;pointerEvents=1;dashed=0;shape=mxgraph.pid2valves.valve;valveType=gate;defState=closed;strokeWidth=4;fillColor=none;fontSize=17;rotation=323;strokeColor=#0000FF;" parent="1" vertex="1">
                    <mxGeometry x="1749" y="352.1600000000001" width="40" height="21.95" as="geometry"/>
                </mxCell>
                <mxCell id="lP6UJAzxdFz-D2vpFwy4-128" value="117" style="text;html=1;strokeColor=none;fillColor=none;align=center;verticalAlign=middle;whiteSpace=wrap;rounded=0;fontSize=33;fontStyle=1;strokeWidth=4;" parent="1" vertex="1">
                    <mxGeometry x="1741" y="405.41999999999996" width="40" height="20" as="geometry"/>
                </mxCell>
                <mxCell id="lP6UJAzxdFz-D2vpFwy4-130" value="94" style="text;html=1;strokeColor=none;fillColor=none;align=center;verticalAlign=middle;whiteSpace=wrap;rounded=0;fontSize=33;fontStyle=1;strokeWidth=4;" parent="1" vertex="1">
                    <mxGeometry x="1818" y="402" width="40" height="20" as="geometry"/>
                </mxCell>
                <mxCell id="lP6UJAzxdFz-D2vpFwy4-131" value="95" style="text;html=1;strokeColor=none;fillColor=none;align=center;verticalAlign=middle;whiteSpace=wrap;rounded=0;fontSize=33;fontStyle=1;strokeWidth=4;" parent="1" vertex="1">
                    <mxGeometry x="1800" y="465.05999999999995" width="40" height="20" as="geometry"/>
                </mxCell>
                <mxCell id="lP6UJAzxdFz-D2vpFwy4-132" value="96" style="text;html=1;strokeColor=none;fillColor=none;align=center;verticalAlign=middle;whiteSpace=wrap;rounded=0;fontSize=33;fontStyle=1;strokeWidth=4;" parent="1" vertex="1">
                    <mxGeometry x="1865" y="453" width="40" height="20" as="geometry"/>
                </mxCell>
                <mxCell id="lP6UJAzxdFz-D2vpFwy4-133" value="97" style="text;html=1;strokeColor=none;fillColor=none;align=center;verticalAlign=middle;whiteSpace=wrap;rounded=0;fontSize=33;fontStyle=1;strokeWidth=4;" parent="1" vertex="1">
                    <mxGeometry x="1906" y="502.05999999999995" width="40" height="20" as="geometry"/>
                </mxCell>
                <mxCell id="lP6UJAzxdFz-D2vpFwy4-134" value="98" style="text;html=1;strokeColor=none;fillColor=none;align=center;verticalAlign=middle;whiteSpace=wrap;rounded=0;fontSize=33;fontStyle=1;strokeWidth=4;" parent="1" vertex="1">
                    <mxGeometry x="1871" y="552.05" width="50" height="35" as="geometry"/>
                </mxCell>
                <mxCell id="lP6UJAzxdFz-D2vpFwy4-135" value="99" style="text;html=1;strokeColor=none;fillColor=none;align=center;verticalAlign=middle;whiteSpace=wrap;rounded=0;fontSize=33;fontStyle=1;strokeWidth=4;" parent="1" vertex="1">
                    <mxGeometry x="1980" y="591" width="40" height="20" as="geometry"/>
                </mxCell>
                <mxCell id="lP6UJAzxdFz-D2vpFwy4-136" value="111" style="text;html=1;strokeColor=none;fillColor=none;align=center;verticalAlign=middle;whiteSpace=wrap;rounded=0;fontSize=33;fontStyle=1;strokeWidth=4;" parent="1" vertex="1">
                    <mxGeometry x="1936" y="640" width="40" height="20" as="geometry"/>
                </mxCell>
                <mxCell id="lP6UJAzxdFz-D2vpFwy4-138" value="106" style="text;html=1;strokeColor=none;fillColor=none;align=center;verticalAlign=middle;whiteSpace=wrap;rounded=0;fontSize=33;fontStyle=1;strokeWidth=4;" parent="1" vertex="1">
                    <mxGeometry x="2031" y="653" width="40" height="20" as="geometry"/>
                </mxCell>
                <mxCell id="lP6UJAzxdFz-D2vpFwy4-139" value="200" style="text;html=1;strokeColor=none;fillColor=none;align=center;verticalAlign=middle;whiteSpace=wrap;rounded=0;fontSize=33;fontStyle=1;strokeWidth=4;" parent="1" vertex="1">
                    <mxGeometry x="1858" y="66" width="40" height="20" as="geometry"/>
                </mxCell>
                <mxCell id="lP6UJAzxdFz-D2vpFwy4-140" value="1" style="text;html=1;strokeColor=none;fillColor=none;align=center;verticalAlign=middle;whiteSpace=wrap;rounded=0;fontSize=33;fontStyle=1;strokeWidth=4;" parent="1" vertex="1">
                    <mxGeometry x="1604" y="176" width="40" height="20" as="geometry"/>
                </mxCell>
                <mxCell id="lP6UJAzxdFz-D2vpFwy4-141" value="" style="endArrow=none;html=1;strokeWidth=4;fontSize=33;" parent="1" edge="1">
                    <mxGeometry width="50" height="50" relative="1" as="geometry">
                        <mxPoint x="853" y="1131" as="sourcePoint"/>
                        <mxPoint x="606" y="161" as="targetPoint"/>
                        <Array as="points">
                            <mxPoint x="860" y="1041"/>
                            <mxPoint x="880" y="971"/>
                            <mxPoint x="830" y="921"/>
                            <mxPoint x="810" y="851"/>
                            <mxPoint x="740" y="751"/>
                            <mxPoint x="710" y="671"/>
                            <mxPoint x="680" y="581"/>
                            <mxPoint x="680" y="521"/>
                            <mxPoint x="650" y="501"/>
                            <mxPoint x="590" y="461"/>
                            <mxPoint x="610" y="421"/>
                            <mxPoint x="606" y="351"/>
                            <mxPoint x="600" y="261"/>
                        </Array>
                    </mxGeometry>
                </mxCell>
                <mxCell id="lP6UJAzxdFz-D2vpFwy4-142" value="" style="endArrow=none;html=1;strokeWidth=4;fontSize=33;" parent="1" edge="1">
                    <mxGeometry width="50" height="50" relative="1" as="geometry">
                        <mxPoint x="517" y="385" as="sourcePoint"/>
                        <mxPoint x="610" y="391" as="targetPoint"/>
                    </mxGeometry>
                </mxCell>
                <mxCell id="lP6UJAzxdFz-D2vpFwy4-143" value="" style="endArrow=none;html=1;strokeWidth=4;fontSize=33;" parent="1" edge="1">
                    <mxGeometry width="50" height="50" relative="1" as="geometry">
                        <mxPoint x="662" y="511" as="sourcePoint"/>
                        <mxPoint x="706" y="418" as="targetPoint"/>
                    </mxGeometry>
                </mxCell>
                <mxCell id="lP6UJAzxdFz-D2vpFwy4-144" value="" style="endArrow=none;html=1;strokeWidth=4;fontSize=33;" parent="1" edge="1">
                    <mxGeometry width="50" height="50" relative="1" as="geometry">
                        <mxPoint x="560" y="801" as="sourcePoint"/>
                        <mxPoint x="660" y="511" as="targetPoint"/>
                        <Array as="points">
                            <mxPoint x="590" y="631"/>
                        </Array>
                    </mxGeometry>
                </mxCell>
                <mxCell id="lP6UJAzxdFz-D2vpFwy4-145" value="" style="verticalLabelPosition=bottom;align=center;html=1;verticalAlign=top;pointerEvents=1;dashed=0;shape=mxgraph.pid2valves.valve;valveType=gate;defState=closed;strokeWidth=4;fillColor=none;fontSize=17;rotation=157;" parent="1" vertex="1">
                    <mxGeometry x="704" y="699.0000000000001" width="40" height="21.95" as="geometry"/>
                </mxCell>
                <mxCell id="lP6UJAzxdFz-D2vpFwy4-146" value="" style="verticalLabelPosition=bottom;align=center;html=1;verticalAlign=top;pointerEvents=1;dashed=0;shape=mxgraph.pid2valves.valve;valveType=gate;defState=closed;strokeWidth=4;fillColor=none;fontSize=17;rotation=-150;" parent="1" vertex="1">
                    <mxGeometry x="580" y="431.04999999999995" width="40" height="21.95" as="geometry"/>
                </mxCell>
                <mxCell id="lP6UJAzxdFz-D2vpFwy4-147" value="" style="verticalLabelPosition=bottom;align=center;html=1;verticalAlign=top;pointerEvents=1;dashed=0;shape=mxgraph.pid2valves.valve;valveType=gate;defState=closed;strokeWidth=4;fillColor=none;fontSize=17;rotation=272;" parent="1" vertex="1">
                    <mxGeometry x="560" y="377.05000000000007" width="40" height="21.95" as="geometry"/>
                </mxCell>
                <mxCell id="lP6UJAzxdFz-D2vpFwy4-149" value="" style="endArrow=none;html=1;strokeWidth=4;fontSize=33;" parent="1" edge="1">
                    <mxGeometry width="50" height="50" relative="1" as="geometry">
                        <mxPoint x="630" y="991" as="sourcePoint"/>
                        <mxPoint x="820" y="881" as="targetPoint"/>
                        <Array as="points">
                            <mxPoint x="750" y="911"/>
                        </Array>
                    </mxGeometry>
                </mxCell>
                <mxCell id="lP6UJAzxdFz-D2vpFwy4-150" value="" style="verticalLabelPosition=bottom;align=center;html=1;verticalAlign=top;pointerEvents=1;dashed=0;shape=mxgraph.pid2valves.valve;valveType=gate;defState=closed;strokeWidth=4;fillColor=none;fontSize=17;rotation=212;strokeColor=#0000FF;" parent="1" vertex="1">
                    <mxGeometry x="878" y="938.05" width="40" height="21.95" as="geometry"/>
                </mxCell>
                <mxCell id="lP6UJAzxdFz-D2vpFwy4-151" value="" style="verticalLabelPosition=bottom;align=center;html=1;verticalAlign=top;pointerEvents=1;dashed=0;shape=mxgraph.pid2valves.valve;valveType=gate;defState=closed;strokeWidth=4;fillColor=none;fontSize=17;rotation=244;" parent="1" vertex="1">
                    <mxGeometry x="779" y="878" width="40" height="21.95" as="geometry"/>
                </mxCell>
                <mxCell id="lP6UJAzxdFz-D2vpFwy4-153" value="" style="endArrow=none;html=1;strokeWidth=4;fontSize=33;" parent="1" edge="1">
                    <mxGeometry width="50" height="50" relative="1" as="geometry">
                        <mxPoint x="877" y="981" as="sourcePoint"/>
                        <mxPoint x="1050" y="761" as="targetPoint"/>
                        <Array as="points">
                            <mxPoint x="910" y="931"/>
                            <mxPoint x="990" y="841"/>
                        </Array>
                    </mxGeometry>
                </mxCell>
                <mxCell id="lP6UJAzxdFz-D2vpFwy4-155" value="4126" style="text;html=1;strokeColor=none;fillColor=none;align=center;verticalAlign=middle;whiteSpace=wrap;rounded=0;fontSize=33;fontStyle=1;strokeWidth=4;" parent="1" vertex="1">
                    <mxGeometry x="620.5" y="1001" width="40" height="20" as="geometry"/>
                </mxCell>
                <mxCell id="lP6UJAzxdFz-D2vpFwy4-156" value="81" style="text;html=1;strokeColor=none;fillColor=none;align=center;verticalAlign=middle;whiteSpace=wrap;rounded=0;fontSize=33;fontStyle=1;strokeWidth=4;" parent="1" vertex="1">
                    <mxGeometry x="700" y="951" width="40" height="20" as="geometry"/>
                </mxCell>
                <mxCell id="lP6UJAzxdFz-D2vpFwy4-157" value="127" style="text;html=1;strokeColor=none;fillColor=none;align=center;verticalAlign=middle;whiteSpace=wrap;rounded=0;fontSize=33;fontStyle=1;strokeWidth=4;" parent="1" vertex="1">
                    <mxGeometry x="800" y="951" width="40" height="20" as="geometry"/>
                </mxCell>
                <mxCell id="lP6UJAzxdFz-D2vpFwy4-158" value="42" style="text;html=1;strokeColor=none;fillColor=none;align=center;verticalAlign=middle;whiteSpace=wrap;rounded=0;fontSize=33;fontStyle=1;strokeWidth=4;" parent="1" vertex="1">
                    <mxGeometry x="898" y="978.05" width="40" height="20" as="geometry"/>
                </mxCell>
                <mxCell id="lP6UJAzxdFz-D2vpFwy4-159" value="40" style="text;html=1;strokeColor=none;fillColor=none;align=center;verticalAlign=middle;whiteSpace=wrap;rounded=0;fontSize=33;fontStyle=1;strokeWidth=4;" parent="1" vertex="1">
                    <mxGeometry x="838" y="894" width="40" height="20" as="geometry"/>
                </mxCell>
                <mxCell id="lP6UJAzxdFz-D2vpFwy4-160" value="22" style="text;html=1;strokeColor=none;fillColor=none;align=center;verticalAlign=middle;whiteSpace=wrap;rounded=0;fontSize=33;fontStyle=1;strokeWidth=4;" parent="1" vertex="1">
                    <mxGeometry x="907" y="858" width="40" height="20" as="geometry"/>
                </mxCell>
                <mxCell id="lP6UJAzxdFz-D2vpFwy4-161" value="29" style="text;html=1;strokeColor=none;fillColor=none;align=center;verticalAlign=middle;whiteSpace=wrap;rounded=0;fontSize=33;fontStyle=1;strokeWidth=4;" parent="1" vertex="1">
                    <mxGeometry x="1008" y="827" width="40" height="20" as="geometry"/>
                </mxCell>
                <mxCell id="lP6UJAzxdFz-D2vpFwy4-162" value="28" style="text;html=1;strokeColor=none;fillColor=none;align=center;verticalAlign=middle;whiteSpace=wrap;rounded=0;fontSize=33;fontStyle=1;strokeWidth=4;" parent="1" vertex="1">
                    <mxGeometry x="1055" y="757" width="40" height="20" as="geometry"/>
                </mxCell>
                <mxCell id="lP6UJAzxdFz-D2vpFwy4-163" value="26" style="text;html=1;strokeColor=none;fillColor=none;align=center;verticalAlign=middle;whiteSpace=wrap;rounded=0;fontSize=33;fontStyle=1;strokeWidth=4;" parent="1" vertex="1">
                    <mxGeometry x="720" y="878.97" width="40" height="20" as="geometry"/>
                </mxCell>
                <mxCell id="lP6UJAzxdFz-D2vpFwy4-164" value="82" style="text;html=1;strokeColor=none;fillColor=none;align=center;verticalAlign=middle;whiteSpace=wrap;rounded=0;fontSize=33;fontStyle=1;strokeWidth=4;" parent="1" vertex="1">
                    <mxGeometry x="720" y="791" width="40" height="20" as="geometry"/>
                </mxCell>
                <mxCell id="lP6UJAzxdFz-D2vpFwy4-165" value="&lt;span style=&quot;&quot;&gt;&lt;span&gt;79&lt;/span&gt;&lt;/span&gt;" style="text;html=1;strokeColor=none;fillColor=none;align=center;verticalAlign=middle;whiteSpace=wrap;rounded=0;fontSize=33;fontStyle=0;fontColor=#FF0000;strokeWidth=4;" parent="1" vertex="1">
                    <mxGeometry x="510" y="798.95" width="40" height="20" as="geometry"/>
                </mxCell>
                <mxCell id="lP6UJAzxdFz-D2vpFwy4-166" value="74" style="text;html=1;strokeColor=none;fillColor=none;align=center;verticalAlign=middle;whiteSpace=wrap;rounded=0;fontSize=33;fontStyle=1;strokeWidth=4;" parent="1" vertex="1">
                    <mxGeometry x="536" y="653.98" width="40" height="20" as="geometry"/>
                </mxCell>
                <mxCell id="lP6UJAzxdFz-D2vpFwy4-168" value="78" style="text;html=1;strokeColor=none;fillColor=none;align=center;verticalAlign=middle;whiteSpace=wrap;rounded=0;fontSize=33;fontStyle=1;strokeWidth=4;" parent="1" vertex="1">
                    <mxGeometry x="647" y="609" width="40" height="20" as="geometry"/>
                </mxCell>
                <mxCell id="lP6UJAzxdFz-D2vpFwy4-169" value="80" style="text;html=1;strokeColor=none;fillColor=none;align=center;verticalAlign=middle;whiteSpace=wrap;rounded=0;fontSize=33;fontStyle=1;strokeWidth=4;" parent="1" vertex="1">
                    <mxGeometry x="696" y="522.06" width="40" height="20" as="geometry"/>
                </mxCell>
                <mxCell id="lP6UJAzxdFz-D2vpFwy4-170" value="77" style="text;html=1;strokeColor=none;fillColor=none;align=center;verticalAlign=middle;whiteSpace=wrap;rounded=0;fontSize=33;fontStyle=1;strokeWidth=4;" parent="1" vertex="1">
                    <mxGeometry x="587" y="551" width="40" height="20" as="geometry"/>
                </mxCell>
                <mxCell id="lP6UJAzxdFz-D2vpFwy4-171" value="76" style="text;html=1;strokeColor=none;fillColor=none;align=center;verticalAlign=middle;whiteSpace=wrap;rounded=0;fontSize=33;fontStyle=1;strokeWidth=4;" parent="1" vertex="1">
                    <mxGeometry x="550" y="468.11" width="40" height="20" as="geometry"/>
                </mxCell>
                <mxCell id="lP6UJAzxdFz-D2vpFwy4-172" value="75" style="text;html=1;strokeColor=none;fillColor=none;align=center;verticalAlign=middle;whiteSpace=wrap;rounded=0;fontSize=33;fontStyle=1;strokeWidth=4;" parent="1" vertex="1">
                    <mxGeometry x="710.4100000000001" y="402" width="40" height="20" as="geometry"/>
                </mxCell>
                <mxCell id="lP6UJAzxdFz-D2vpFwy4-173" value="176" style="text;html=1;strokeColor=none;fillColor=none;align=center;verticalAlign=middle;whiteSpace=wrap;rounded=0;fontSize=33;fontStyle=1;strokeWidth=4;" parent="1" vertex="1">
                    <mxGeometry x="620" y="340.11" width="40" height="20" as="geometry"/>
                </mxCell>
                <mxCell id="lP6UJAzxdFz-D2vpFwy4-174" value="&lt;span style=&quot;&quot;&gt;&lt;span&gt;179&lt;/span&gt;&lt;/span&gt;" style="text;html=1;strokeColor=none;fillColor=none;align=center;verticalAlign=middle;whiteSpace=wrap;rounded=0;fontSize=33;fontStyle=0;fontColor=#FF0000;strokeWidth=4;" parent="1" vertex="1">
                    <mxGeometry x="496" y="354.11" width="40" height="20" as="geometry"/>
                </mxCell>
                <mxCell id="lP6UJAzxdFz-D2vpFwy4-175" value="175" style="text;html=1;strokeColor=none;fillColor=none;align=center;verticalAlign=middle;whiteSpace=wrap;rounded=0;fontSize=33;fontStyle=1;strokeWidth=4;" parent="1" vertex="1">
                    <mxGeometry x="620" y="244" width="40" height="20" as="geometry"/>
                </mxCell>
                <mxCell id="lP6UJAzxdFz-D2vpFwy4-176" value="" style="endArrow=none;dashed=1;html=1;strokeWidth=4;fontSize=33;" parent="1" edge="1">
                    <mxGeometry width="50" height="50" relative="1" as="geometry">
                        <mxPoint x="450" y="1953.3529411764707" as="sourcePoint"/>
                        <mxPoint x="40" y="521" as="targetPoint"/>
                        <Array as="points">
                            <mxPoint x="540" y="1701"/>
                            <mxPoint x="570" y="1671"/>
                            <mxPoint x="600" y="1601"/>
                            <mxPoint x="590" y="1571"/>
                            <mxPoint x="530" y="1551"/>
                            <mxPoint x="490" y="1531"/>
                            <mxPoint x="510" y="1081"/>
                            <mxPoint x="500" y="1061"/>
                            <mxPoint x="490" y="1021"/>
                            <mxPoint x="470" y="931"/>
                            <mxPoint x="270" y="741"/>
                        </Array>
                    </mxGeometry>
                </mxCell>
                <mxCell id="lP6UJAzxdFz-D2vpFwy4-177" value="" style="endArrow=none;dashed=1;html=1;strokeWidth=4;fontSize=33;" parent="1" edge="1">
                    <mxGeometry width="50" height="50" relative="1" as="geometry">
                        <mxPoint x="390" y="1141" as="sourcePoint"/>
                        <mxPoint x="500" y="1071" as="targetPoint"/>
                    </mxGeometry>
                </mxCell>
                <mxCell id="lP6UJAzxdFz-D2vpFwy4-178" value="" style="endArrow=none;dashed=1;html=1;strokeWidth=4;fontSize=33;" parent="1" edge="1">
                    <mxGeometry width="50" height="50" relative="1" as="geometry">
                        <mxPoint x="100" y="1311" as="sourcePoint"/>
                        <mxPoint x="480" y="1021" as="targetPoint"/>
                        <Array as="points">
                            <mxPoint x="140" y="1501"/>
                            <mxPoint x="200" y="1551"/>
                            <mxPoint x="230" y="1531"/>
                            <mxPoint x="270" y="1431"/>
                            <mxPoint x="250" y="1351"/>
                            <mxPoint x="260" y="1271"/>
                            <mxPoint x="240" y="1211"/>
                            <mxPoint x="330" y="1091"/>
                            <mxPoint x="370" y="1061"/>
                        </Array>
                    </mxGeometry>
                </mxCell>
                <mxCell id="lP6UJAzxdFz-D2vpFwy4-179" value="" style="endArrow=none;dashed=1;html=1;strokeWidth=4;fontSize=33;" parent="1" edge="1">
                    <mxGeometry width="50" height="50" relative="1" as="geometry">
                        <mxPoint x="420" y="1641" as="sourcePoint"/>
                        <mxPoint x="490" y="1531" as="targetPoint"/>
                        <Array as="points">
                            <mxPoint x="400" y="1621"/>
                            <mxPoint x="400" y="1591"/>
                            <mxPoint x="470" y="1551"/>
                        </Array>
                    </mxGeometry>
                </mxCell>
                <mxCell id="lP6UJAzxdFz-D2vpFwy4-180" value="" style="endArrow=none;dashed=1;html=1;strokeWidth=4;fontSize=33;" parent="1" edge="1">
                    <mxGeometry width="50" height="50" relative="1" as="geometry">
                        <mxPoint x="520" y="1081" as="sourcePoint"/>
                        <mxPoint x="2474" y="2191" as="targetPoint"/>
                        <Array as="points">
                            <mxPoint x="670" y="1081"/>
                            <mxPoint x="870" y="1131"/>
                            <mxPoint x="1030" y="1141"/>
                            <mxPoint x="1060" y="1151"/>
                            <mxPoint x="1180" y="1401"/>
                            <mxPoint x="1240" y="1481"/>
                            <mxPoint x="1310" y="1551"/>
                            <mxPoint x="1390" y="1591"/>
                            <mxPoint x="1410" y="1621"/>
                            <mxPoint x="1380" y="1821"/>
                            <mxPoint x="1440" y="1951"/>
                            <mxPoint x="1520" y="2071"/>
                            <mxPoint x="1660" y="1831"/>
                            <mxPoint x="1690" y="1851"/>
                            <mxPoint x="1770" y="1911"/>
                            <mxPoint x="1820" y="1891"/>
                            <mxPoint x="1830" y="1941"/>
                            <mxPoint x="1940" y="1991"/>
                            <mxPoint x="1960" y="2061"/>
                            <mxPoint x="2130" y="2141"/>
                            <mxPoint x="2320" y="2171"/>
                        </Array>
                    </mxGeometry>
                </mxCell>
                <mxCell id="lP6UJAzxdFz-D2vpFwy4-181" value="" style="endArrow=none;dashed=1;html=1;strokeWidth=4;fontSize=33;" parent="1" edge="1">
                    <mxGeometry width="50" height="50" relative="1" as="geometry">
                        <mxPoint x="625" y="1474" as="sourcePoint"/>
                        <mxPoint x="763" y="1108" as="targetPoint"/>
                        <Array as="points">
                            <mxPoint x="670" y="1271"/>
                        </Array>
                    </mxGeometry>
                </mxCell>
                <mxCell id="lP6UJAzxdFz-D2vpFwy4-182" value="" style="endArrow=none;dashed=1;html=1;strokeWidth=4;fontSize=33;" parent="1" edge="1">
                    <mxGeometry width="50" height="50" relative="1" as="geometry">
                        <mxPoint x="550" y="1963" as="sourcePoint"/>
                        <mxPoint x="850" y="1131" as="targetPoint"/>
                        <Array as="points">
                            <mxPoint x="670" y="1701"/>
                            <mxPoint x="780" y="1511"/>
                            <mxPoint x="830" y="1311"/>
                            <mxPoint x="850" y="1231"/>
                        </Array>
                    </mxGeometry>
                </mxCell>
                <mxCell id="lP6UJAzxdFz-D2vpFwy4-183" value="" style="endArrow=none;dashed=1;html=1;strokeWidth=4;fontSize=33;" parent="1" edge="1">
                    <mxGeometry width="50" height="50" relative="1" as="geometry">
                        <mxPoint x="790" y="1491" as="sourcePoint"/>
                        <mxPoint x="880" y="1511" as="targetPoint"/>
                    </mxGeometry>
                </mxCell>
                <mxCell id="lP6UJAzxdFz-D2vpFwy4-184" value="" style="endArrow=none;dashed=1;html=1;strokeWidth=4;fontSize=33;" parent="1" edge="1">
                    <mxGeometry width="50" height="50" relative="1" as="geometry">
                        <mxPoint x="753" y="1556" as="sourcePoint"/>
                        <mxPoint x="944" y="1452" as="targetPoint"/>
                        <Array as="points">
                            <mxPoint x="840" y="1581"/>
                            <mxPoint x="920" y="1591"/>
                        </Array>
                    </mxGeometry>
                </mxCell>
                <mxCell id="lP6UJAzxdFz-D2vpFwy4-185" value="" style="endArrow=none;dashed=1;html=1;strokeWidth=4;fontSize=33;" parent="1" edge="1">
                    <mxGeometry width="50" height="50" relative="1" as="geometry">
                        <mxPoint x="1170" y="1481" as="sourcePoint"/>
                        <mxPoint x="1190" y="1431" as="targetPoint"/>
                    </mxGeometry>
                </mxCell>
                <mxCell id="lP6UJAzxdFz-D2vpFwy4-186" value="" style="endArrow=none;dashed=1;html=1;strokeWidth=4;fontSize=33;" parent="1" edge="1">
                    <mxGeometry width="50" height="50" relative="1" as="geometry">
                        <mxPoint x="990" y="1654" as="sourcePoint"/>
                        <mxPoint x="1140" y="1552" as="targetPoint"/>
                        <Array as="points">
                            <mxPoint x="1030" y="1671"/>
                            <mxPoint x="1080" y="1671"/>
                        </Array>
                    </mxGeometry>
                </mxCell>
                <mxCell id="lP6UJAzxdFz-D2vpFwy4-187" value="" style="endArrow=none;dashed=1;html=1;strokeWidth=4;fontSize=33;" parent="1" edge="1">
                    <mxGeometry width="50" height="50" relative="1" as="geometry">
                        <mxPoint x="1080" y="1661" as="sourcePoint"/>
                        <mxPoint x="1180" y="1721" as="targetPoint"/>
                        <Array as="points">
                            <mxPoint x="1140" y="1691"/>
                        </Array>
                    </mxGeometry>
                </mxCell>
                <mxCell id="lP6UJAzxdFz-D2vpFwy4-188" value="" style="endArrow=none;dashed=1;html=1;strokeWidth=4;fontSize=33;" parent="1" edge="1">
                    <mxGeometry width="50" height="50" relative="1" as="geometry">
                        <mxPoint x="1250" y="1631" as="sourcePoint"/>
                        <mxPoint x="1282" y="1531" as="targetPoint"/>
                    </mxGeometry>
                </mxCell>
                <mxCell id="lP6UJAzxdFz-D2vpFwy4-189" value="" style="endArrow=none;dashed=1;html=1;strokeWidth=4;fontSize=33;" parent="1" edge="1">
                    <mxGeometry width="50" height="50" relative="1" as="geometry">
                        <mxPoint x="300" y="1821" as="sourcePoint"/>
                        <mxPoint x="480" y="1861" as="targetPoint"/>
                        <Array as="points">
                            <mxPoint x="390" y="1831"/>
                        </Array>
                    </mxGeometry>
                </mxCell>
                <mxCell id="lP6UJAzxdFz-D2vpFwy4-190" value="" style="endArrow=none;dashed=1;html=1;strokeWidth=4;fontSize=33;" parent="1" edge="1">
                    <mxGeometry width="50" height="50" relative="1" as="geometry">
                        <mxPoint x="1410" y="1901" as="sourcePoint"/>
                        <mxPoint x="1530" y="1731" as="targetPoint"/>
                    </mxGeometry>
                </mxCell>
                <mxCell id="lP6UJAzxdFz-D2vpFwy4-191" value="" style="endArrow=none;dashed=1;html=1;strokeWidth=4;fontSize=33;" parent="1" edge="1">
                    <mxGeometry width="50" height="50" relative="1" as="geometry">
                        <mxPoint x="1780" y="2111" as="sourcePoint"/>
                        <mxPoint x="1840" y="1951" as="targetPoint"/>
                    </mxGeometry>
                </mxCell>
                <mxCell id="lP6UJAzxdFz-D2vpFwy4-192" value="" style="endArrow=none;dashed=1;html=1;strokeWidth=4;fontSize=33;" parent="1" edge="1">
                    <mxGeometry width="50" height="50" relative="1" as="geometry">
                        <mxPoint x="1980" y="2141" as="sourcePoint"/>
                        <mxPoint x="1950" y="2051" as="targetPoint"/>
                    </mxGeometry>
                </mxCell>
                <mxCell id="lP6UJAzxdFz-D2vpFwy4-193" value="" style="endArrow=none;dashed=1;html=1;strokeWidth=4;fontSize=33;" parent="1" edge="1">
                    <mxGeometry width="50" height="50" relative="1" as="geometry">
                        <mxPoint x="1820" y="1891" as="sourcePoint"/>
                        <mxPoint x="1890" y="1791" as="targetPoint"/>
                    </mxGeometry>
                </mxCell>
                <mxCell id="lP6UJAzxdFz-D2vpFwy4-194" value="30" style="text;html=1;strokeColor=none;fillColor=none;align=center;verticalAlign=middle;whiteSpace=wrap;rounded=0;fontSize=33;fontStyle=1;strokeWidth=4;" parent="1" vertex="1">
                    <mxGeometry x="1840" y="885" width="40" height="20" as="geometry"/>
                </mxCell>
                <mxCell id="lP6UJAzxdFz-D2vpFwy4-196" value="" style="endArrow=none;html=1;strokeWidth=4;fontSize=33;" parent="1" edge="1">
                    <mxGeometry width="50" height="50" relative="1" as="geometry">
                        <mxPoint x="1601" y="1622.1764705882354" as="sourcePoint"/>
                        <mxPoint x="1872" y="1001" as="targetPoint"/>
                    </mxGeometry>
                </mxCell>
                <mxCell id="lP6UJAzxdFz-D2vpFwy4-198" value="&lt;span style=&quot;font-weight: normal&quot;&gt;&lt;span&gt;47&lt;/span&gt;&lt;/span&gt;" style="text;html=1;strokeColor=none;fillColor=none;align=center;verticalAlign=middle;whiteSpace=wrap;rounded=0;fontSize=33;fontStyle=1;fontColor=#FF0000;strokeWidth=4;" parent="1" vertex="1">
                    <mxGeometry x="1850" y="1051" width="40" height="20" as="geometry"/>
                </mxCell>
                <mxCell id="lP6UJAzxdFz-D2vpFwy4-199" value="169" style="text;html=1;strokeColor=none;fillColor=none;align=center;verticalAlign=middle;whiteSpace=wrap;rounded=0;fontSize=33;fontStyle=1;strokeWidth=4;" parent="1" vertex="1">
                    <mxGeometry x="1770" y="1091" width="40" height="20" as="geometry"/>
                </mxCell>
                <mxCell id="lP6UJAzxdFz-D2vpFwy4-200" value="33" style="text;html=1;strokeColor=none;fillColor=none;align=center;verticalAlign=middle;whiteSpace=wrap;rounded=0;fontSize=33;fontStyle=1;strokeWidth=4;" parent="1" vertex="1">
                    <mxGeometry x="1730" y="1194" width="40" height="20" as="geometry"/>
                </mxCell>
                <mxCell id="lP6UJAzxdFz-D2vpFwy4-201" value="35" style="text;html=1;strokeColor=none;fillColor=none;align=center;verticalAlign=middle;whiteSpace=wrap;rounded=0;fontSize=33;fontStyle=1;strokeWidth=4;" parent="1" vertex="1">
                    <mxGeometry x="1690" y="1274" width="40" height="20" as="geometry"/>
                </mxCell>
                <mxCell id="lP6UJAzxdFz-D2vpFwy4-202" value="68" style="text;html=1;strokeColor=none;fillColor=none;align=center;verticalAlign=middle;whiteSpace=wrap;rounded=0;fontSize=33;fontStyle=1;strokeWidth=4;" parent="1" vertex="1">
                    <mxGeometry x="1610" y="1481" width="40" height="20" as="geometry"/>
                </mxCell>
                <mxCell id="lP6UJAzxdFz-D2vpFwy4-203" value="168" style="text;html=1;strokeColor=none;fillColor=none;align=center;verticalAlign=middle;whiteSpace=wrap;rounded=0;fontSize=33;fontStyle=1;strokeWidth=4;" parent="1" vertex="1">
                    <mxGeometry x="1551" y="1598" width="40" height="20" as="geometry"/>
                </mxCell>
                <mxCell id="lP6UJAzxdFz-D2vpFwy4-204" value="" style="endArrow=none;html=1;strokeWidth=4;fontSize=33;" parent="1" edge="1">
                    <mxGeometry width="50" height="50" relative="1" as="geometry">
                        <mxPoint x="1770" y="1706" as="sourcePoint"/>
                        <mxPoint x="1708" y="1375" as="targetPoint"/>
                        <Array as="points">
                            <mxPoint x="1890" y="1501"/>
                            <mxPoint x="1790" y="1441"/>
                        </Array>
                    </mxGeometry>
                </mxCell>
                <mxCell id="lP6UJAzxdFz-D2vpFwy4-205" value="" style="endArrow=none;html=1;strokeWidth=4;fontSize=33;" parent="1" edge="1">
                    <mxGeometry width="50" height="50" relative="1" as="geometry">
                        <mxPoint x="1820" y="1621" as="sourcePoint"/>
                        <mxPoint x="1870" y="1651" as="targetPoint"/>
                    </mxGeometry>
                </mxCell>
                <mxCell id="lP6UJAzxdFz-D2vpFwy4-206" value="72" style="text;html=1;strokeColor=none;fillColor=none;align=center;verticalAlign=middle;whiteSpace=wrap;rounded=0;fontSize=33;fontStyle=1;strokeWidth=4;" parent="1" vertex="1">
                    <mxGeometry x="1725" y="1695" width="40" height="20" as="geometry"/>
                </mxCell>
                <mxCell id="lP6UJAzxdFz-D2vpFwy4-207" value="172" style="text;html=1;strokeColor=none;fillColor=none;align=center;verticalAlign=middle;whiteSpace=wrap;rounded=0;fontSize=33;fontStyle=1;strokeWidth=4;" parent="1" vertex="1">
                    <mxGeometry x="1840" y="1664.95" width="40" height="20" as="geometry"/>
                </mxCell>
                <mxCell id="lP6UJAzxdFz-D2vpFwy4-208" value="&lt;span style=&quot;&quot;&gt;&lt;span&gt;170&lt;/span&gt;&lt;/span&gt;" style="text;html=1;strokeColor=none;fillColor=none;align=center;verticalAlign=middle;whiteSpace=wrap;rounded=0;fontSize=33;fontStyle=0;fontColor=#FF0000;strokeWidth=4;" parent="1" vertex="1">
                    <mxGeometry x="1858" y="1574" width="40" height="20" as="geometry"/>
                </mxCell>
                <mxCell id="lP6UJAzxdFz-D2vpFwy4-209" value="73" style="text;html=1;strokeColor=none;fillColor=none;align=center;verticalAlign=middle;whiteSpace=wrap;rounded=0;fontSize=33;fontStyle=1;strokeWidth=4;" parent="1" vertex="1">
                    <mxGeometry x="1890" y="1501" width="40" height="20" as="geometry"/>
                </mxCell>
                <mxCell id="lP6UJAzxdFz-D2vpFwy4-210" value="67" style="text;html=1;strokeColor=none;fillColor=none;align=center;verticalAlign=middle;whiteSpace=wrap;rounded=0;fontSize=33;fontStyle=1;strokeWidth=4;" parent="1" vertex="1">
                    <mxGeometry x="1752" y="1451" width="40" height="20" as="geometry"/>
                </mxCell>
                <mxCell id="lP6UJAzxdFz-D2vpFwy4-211" value="66" style="text;html=1;strokeColor=none;fillColor=none;align=center;verticalAlign=middle;whiteSpace=wrap;rounded=0;fontSize=33;fontStyle=1;strokeWidth=4;" parent="1" vertex="1">
                    <mxGeometry x="1722" y="1351" width="40" height="20" as="geometry"/>
                </mxCell>
                <mxCell id="lP6UJAzxdFz-D2vpFwy4-212" value="" style="verticalLabelPosition=bottom;align=center;html=1;verticalAlign=top;pointerEvents=1;dashed=0;shape=mxgraph.pid2valves.valve;valveType=gate;defState=closed;strokeWidth=4;fillColor=none;fontSize=17;rotation=-169;fontColor=#0000FF;strokeColor=#0000FF;" parent="1" vertex="1">
                    <mxGeometry x="2069" y="1032" width="40" height="21.95" as="geometry"/>
                </mxCell>
                <mxCell id="lP6UJAzxdFz-D2vpFwy4-213" value="" style="verticalLabelPosition=bottom;align=center;html=1;verticalAlign=top;pointerEvents=1;dashed=0;shape=mxgraph.pid2valves.valve;valveType=gate;defState=closed;strokeWidth=4;fillColor=none;fontSize=17;rotation=208;fontColor=#0000FF;strokeColor=#0000FF;" parent="1" vertex="1">
                    <mxGeometry x="1939" y="1050" width="40" height="21.95" as="geometry"/>
                </mxCell>
                <mxCell id="lP6UJAzxdFz-D2vpFwy4-214" value="" style="verticalLabelPosition=bottom;align=center;html=1;verticalAlign=top;pointerEvents=1;dashed=0;shape=mxgraph.pid2valves.valve;valveType=gate;defState=closed;strokeWidth=4;fillColor=none;fontSize=17;rotation=-60;fontColor=#0000FF;strokeColor=#0000FF;" parent="1" vertex="1">
                    <mxGeometry x="1910" y="1015" width="40" height="21.95" as="geometry"/>
                </mxCell>
                <mxCell id="lP6UJAzxdFz-D2vpFwy4-216" value="" style="endArrow=none;html=1;strokeWidth=4;fontSize=33;" parent="1" edge="1">
                    <mxGeometry width="50" height="50" relative="1" as="geometry">
                        <mxPoint x="1840" y="1301" as="sourcePoint"/>
                        <mxPoint x="1970" y="1041" as="targetPoint"/>
                    </mxGeometry>
                </mxCell>
                <mxCell id="lP6UJAzxdFz-D2vpFwy4-218" value="69" style="text;html=1;strokeColor=none;fillColor=none;align=center;verticalAlign=middle;whiteSpace=wrap;rounded=0;fontSize=33;fontStyle=1;strokeWidth=4;" parent="1" vertex="1">
                    <mxGeometry x="1950" y="1091" width="40" height="20" as="geometry"/>
                </mxCell>
                <mxCell id="lP6UJAzxdFz-D2vpFwy4-219" value="70" style="text;html=1;strokeColor=none;fillColor=none;align=center;verticalAlign=middle;whiteSpace=wrap;rounded=0;fontSize=33;fontStyle=1;strokeWidth=4;" parent="1" vertex="1">
                    <mxGeometry x="1925" y="1141" width="40" height="20" as="geometry"/>
                </mxCell>
                <mxCell id="lP6UJAzxdFz-D2vpFwy4-220" value="31" style="text;html=1;strokeColor=none;fillColor=none;align=center;verticalAlign=middle;whiteSpace=wrap;rounded=0;fontSize=33;fontStyle=1;strokeWidth=4;" parent="1" vertex="1">
                    <mxGeometry x="1849" y="1176.95" width="40" height="20" as="geometry"/>
                </mxCell>
                <mxCell id="lP6UJAzxdFz-D2vpFwy4-221" value="71" style="text;html=1;strokeColor=none;fillColor=none;align=center;verticalAlign=middle;whiteSpace=wrap;rounded=0;fontSize=33;fontStyle=1;strokeWidth=4;" parent="1" vertex="1">
                    <mxGeometry x="1876" y="1251" width="40" height="20" as="geometry"/>
                </mxCell>
                <mxCell id="lP6UJAzxdFz-D2vpFwy4-222" value="49" style="text;html=1;strokeColor=none;fillColor=none;align=center;verticalAlign=middle;whiteSpace=wrap;rounded=0;fontSize=33;fontStyle=1;strokeWidth=4;" parent="1" vertex="1">
                    <mxGeometry x="1800" y="1284" width="40" height="20" as="geometry"/>
                </mxCell>
                <mxCell id="lP6UJAzxdFz-D2vpFwy4-223" value="" style="endArrow=none;html=1;strokeWidth=4;fontSize=33;" parent="1" edge="1">
                    <mxGeometry width="50" height="50" relative="1" as="geometry">
                        <mxPoint x="2082" y="1071" as="sourcePoint"/>
                        <mxPoint x="2802.8333333333335" y="901" as="targetPoint"/>
                        <Array as="points">
                            <mxPoint x="2132" y="851"/>
                            <mxPoint x="2092" y="801"/>
                            <mxPoint x="2132" y="771"/>
                            <mxPoint x="2342" y="851"/>
                            <mxPoint x="2380" y="821"/>
                            <mxPoint x="2610" y="881"/>
                        </Array>
                    </mxGeometry>
                </mxCell>
                <mxCell id="lP6UJAzxdFz-D2vpFwy4-224" value="" style="endArrow=none;html=1;strokeWidth=4;fontSize=33;" parent="1" edge="1">
                    <mxGeometry width="50" height="50" relative="1" as="geometry">
                        <mxPoint x="2426" y="832" as="sourcePoint"/>
                        <mxPoint x="2460" y="691" as="targetPoint"/>
                    </mxGeometry>
                </mxCell>
                <mxCell id="lP6UJAzxdFz-D2vpFwy4-225" value="32" style="text;html=1;strokeColor=none;fillColor=none;align=center;verticalAlign=middle;whiteSpace=wrap;rounded=0;fontSize=33;fontStyle=1;strokeWidth=4;" parent="1" vertex="1">
                    <mxGeometry x="2099" y="994" width="40" height="20" as="geometry"/>
                </mxCell>
                <mxCell id="lP6UJAzxdFz-D2vpFwy4-226" value="37" style="text;html=1;strokeColor=none;fillColor=none;align=center;verticalAlign=middle;whiteSpace=wrap;rounded=0;fontSize=33;fontStyle=1;strokeWidth=4;" parent="1" vertex="1">
                    <mxGeometry x="2120" y="938.05" width="40" height="20" as="geometry"/>
                </mxCell>
                <mxCell id="lP6UJAzxdFz-D2vpFwy4-227" value="52" style="text;html=1;strokeColor=none;fillColor=none;align=center;verticalAlign=middle;whiteSpace=wrap;rounded=0;fontSize=33;fontStyle=1;strokeWidth=4;" parent="1" vertex="1">
                    <mxGeometry x="2080" y="851" width="40" height="20" as="geometry"/>
                </mxCell>
                <mxCell id="lP6UJAzxdFz-D2vpFwy4-228" value="182" style="text;html=1;strokeColor=none;fillColor=none;align=center;verticalAlign=middle;whiteSpace=wrap;rounded=0;fontSize=33;fontStyle=1;strokeWidth=4;" parent="1" vertex="1">
                    <mxGeometry x="2193" y="762.95" width="40" height="20" as="geometry"/>
                </mxCell>
                <mxCell id="lP6UJAzxdFz-D2vpFwy4-229" value="178" style="text;html=1;strokeColor=none;fillColor=none;align=center;verticalAlign=middle;whiteSpace=wrap;rounded=0;fontSize=33;fontStyle=1;strokeWidth=4;" parent="1" vertex="1">
                    <mxGeometry x="2300" y="805" width="40" height="20" as="geometry"/>
                </mxCell>
                <mxCell id="lP6UJAzxdFz-D2vpFwy4-230" value="4017" style="text;html=1;strokeColor=none;fillColor=none;align=center;verticalAlign=middle;whiteSpace=wrap;rounded=0;fontSize=33;fontStyle=1;strokeWidth=4;" parent="1" vertex="1">
                    <mxGeometry x="2360" y="862" width="40" height="20" as="geometry"/>
                </mxCell>
                <mxCell id="lP6UJAzxdFz-D2vpFwy4-231" value="84" style="text;html=1;strokeColor=none;fillColor=none;align=center;verticalAlign=middle;whiteSpace=wrap;rounded=0;fontSize=33;fontStyle=1;strokeWidth=4;" parent="1" vertex="1">
                    <mxGeometry x="2465" y="673.98" width="45" height="29.03" as="geometry"/>
                </mxCell>
                <mxCell id="lP6UJAzxdFz-D2vpFwy4-232" value="85" style="text;html=1;strokeColor=none;fillColor=none;align=center;verticalAlign=middle;whiteSpace=wrap;rounded=0;fontSize=33;fontStyle=1;strokeWidth=4;" parent="1" vertex="1">
                    <mxGeometry x="2560" y="839" width="40" height="20" as="geometry"/>
                </mxCell>
                <mxCell id="lP6UJAzxdFz-D2vpFwy4-233" value="" style="verticalLabelPosition=bottom;align=center;html=1;verticalAlign=top;pointerEvents=1;dashed=0;shape=mxgraph.pid2valves.valve;valveType=gate;defState=closed;strokeWidth=4;fillColor=none;fontSize=17;rotation=-165;" parent="1" vertex="1">
                    <mxGeometry x="2139" y="1123" width="40" height="21.95" as="geometry"/>
                </mxCell>
                <mxCell id="lP6UJAzxdFz-D2vpFwy4-234" value="" style="verticalLabelPosition=bottom;align=center;html=1;verticalAlign=top;pointerEvents=1;dashed=0;shape=mxgraph.pid2valves.valve;valveType=gate;defState=closed;strokeWidth=4;fillColor=none;fontSize=17;rotation=-170;" parent="1" vertex="1">
                    <mxGeometry x="2292" y="1155" width="40" height="21.95" as="geometry"/>
                </mxCell>
                <mxCell id="lP6UJAzxdFz-D2vpFwy4-235" value="34" style="text;html=1;strokeColor=none;fillColor=none;align=center;verticalAlign=middle;whiteSpace=wrap;rounded=0;fontSize=33;fontStyle=0;fontColor=#FF0000;strokeWidth=4;" parent="1" vertex="1">
                    <mxGeometry x="2213" y="1050" width="40" height="20" as="geometry"/>
                </mxCell>
                <mxCell id="lP6UJAzxdFz-D2vpFwy4-236" value="" style="endArrow=none;html=1;strokeWidth=4;fontSize=33;" parent="1" edge="1">
                    <mxGeometry width="50" height="50" relative="1" as="geometry">
                        <mxPoint x="1890" y="1792.6666666666667" as="sourcePoint"/>
                        <mxPoint x="2180" y="1081" as="targetPoint"/>
                        <Array as="points">
                            <mxPoint x="1900" y="1741"/>
                            <mxPoint x="1920" y="1681"/>
                            <mxPoint x="2010" y="1611"/>
                            <mxPoint x="2080" y="1511"/>
                            <mxPoint x="2120" y="1421"/>
                            <mxPoint x="2150" y="1331"/>
                            <mxPoint x="2180" y="1241"/>
                            <mxPoint x="2180" y="1191"/>
                            <mxPoint x="2150" y="1171"/>
                            <mxPoint x="2160" y="1131"/>
                        </Array>
                    </mxGeometry>
                </mxCell>
                <mxCell id="lP6UJAzxdFz-D2vpFwy4-237" value="" style="verticalLabelPosition=bottom;align=center;html=1;verticalAlign=top;pointerEvents=1;dashed=0;shape=mxgraph.pid2valves.valve;valveType=gate;defState=closed;strokeWidth=4;fillColor=none;fontSize=17;rotation=-152;strokeColor=#0000FF;" parent="1" vertex="1">
                    <mxGeometry x="1809" y="1868" width="40" height="21.95" as="geometry"/>
                </mxCell>
                <mxCell id="lP6UJAzxdFz-D2vpFwy4-238" value="" style="verticalLabelPosition=bottom;align=center;html=1;verticalAlign=top;pointerEvents=1;dashed=0;shape=mxgraph.pid2valves.valve;valveType=gate;defState=closed;strokeWidth=4;fillColor=none;fontSize=17;rotation=199;strokeColor=#0000FF;" parent="1" vertex="1">
                    <mxGeometry x="1869" y="1782.53" width="40" height="21.95" as="geometry"/>
                </mxCell>
                <mxCell id="lP6UJAzxdFz-D2vpFwy4-241" value="65" style="text;html=1;strokeColor=none;fillColor=none;align=center;verticalAlign=middle;whiteSpace=wrap;rounded=0;fontSize=33;fontStyle=1;strokeWidth=4;" parent="1" vertex="1">
                    <mxGeometry x="1905" y="1761" width="40" height="20" as="geometry"/>
                </mxCell>
                <mxCell id="lP6UJAzxdFz-D2vpFwy4-242" value="&lt;span style=&quot;&quot;&gt;&lt;span&gt;64&lt;/span&gt;&lt;/span&gt;" style="text;html=1;strokeColor=none;fillColor=none;align=center;verticalAlign=middle;whiteSpace=wrap;rounded=0;fontSize=33;fontStyle=0;fontColor=#FF0000;strokeWidth=4;" parent="1" vertex="1">
                    <mxGeometry x="1936" y="1675" width="40" height="20" as="geometry"/>
                </mxCell>
                <mxCell id="lP6UJAzxdFz-D2vpFwy4-243" value="89" style="text;html=1;strokeColor=none;fillColor=none;align=center;verticalAlign=middle;whiteSpace=wrap;rounded=0;fontSize=33;fontStyle=1;strokeWidth=4;" parent="1" vertex="1">
                    <mxGeometry x="2005" y="1618" width="40" height="20" as="geometry"/>
                </mxCell>
                <mxCell id="lP6UJAzxdFz-D2vpFwy4-244" value="56" style="text;html=1;strokeColor=none;fillColor=none;align=center;verticalAlign=middle;whiteSpace=wrap;rounded=0;fontSize=33;fontStyle=1;strokeWidth=4;" parent="1" vertex="1">
                    <mxGeometry x="2053" y="1561" width="40" height="20" as="geometry"/>
                </mxCell>
                <mxCell id="lP6UJAzxdFz-D2vpFwy4-246" value="102" style="text;html=1;strokeColor=none;fillColor=none;align=center;verticalAlign=middle;whiteSpace=wrap;rounded=0;fontSize=33;fontStyle=1;strokeWidth=4;" parent="1" vertex="1">
                    <mxGeometry x="2029" y="1488" width="40" height="20" as="geometry"/>
                </mxCell>
                <mxCell id="lP6UJAzxdFz-D2vpFwy4-247" value="50" style="text;html=1;strokeColor=none;fillColor=none;align=center;verticalAlign=middle;whiteSpace=wrap;rounded=0;fontSize=33;fontStyle=1;strokeWidth=4;" parent="1" vertex="1">
                    <mxGeometry x="2131" y="1412" width="40" height="20" as="geometry"/>
                </mxCell>
                <mxCell id="lP6UJAzxdFz-D2vpFwy4-249" value="59" style="text;html=1;strokeColor=none;fillColor=none;align=center;verticalAlign=middle;whiteSpace=wrap;rounded=0;fontSize=33;fontStyle=1;strokeWidth=4;" parent="1" vertex="1">
                    <mxGeometry x="2193" y="1191" width="40" height="20" as="geometry"/>
                </mxCell>
                <mxCell id="lP6UJAzxdFz-D2vpFwy4-250" value="55" style="text;html=1;strokeColor=none;fillColor=none;align=center;verticalAlign=middle;whiteSpace=wrap;rounded=0;fontSize=33;fontStyle=0;fontColor=#FF0000;strokeWidth=4;" parent="1" vertex="1">
                    <mxGeometry x="2180" y="1101" width="40" height="20" as="geometry"/>
                </mxCell>
                <mxCell id="lP6UJAzxdFz-D2vpFwy4-252" value="" style="verticalLabelPosition=bottom;align=center;html=1;verticalAlign=top;pointerEvents=1;dashed=0;shape=mxgraph.pid2valves.valve;valveType=gate;defState=closed;strokeWidth=4;fillColor=none;fontSize=17;rotation=290;strokeColor=#0000FF;" parent="1" vertex="1">
                    <mxGeometry x="2359" y="1692.95" width="40" height="21.95" as="geometry"/>
                </mxCell>
                <mxCell id="lP6UJAzxdFz-D2vpFwy4-253" value="" style="verticalLabelPosition=bottom;align=center;html=1;verticalAlign=top;pointerEvents=1;dashed=0;shape=mxgraph.pid2valves.valve;valveType=gate;defState=closed;strokeWidth=4;fillColor=none;fontSize=17;rotation=-160;strokeColor=#0000FF;" parent="1" vertex="1">
                    <mxGeometry x="2307" y="1643" width="40" height="21.95" as="geometry"/>
                </mxCell>
                <mxCell id="lP6UJAzxdFz-D2vpFwy4-254" value="36" style="text;html=1;strokeColor=none;fillColor=none;align=center;verticalAlign=middle;whiteSpace=wrap;rounded=0;fontSize=33;fontStyle=1;strokeWidth=4;" parent="1" vertex="1">
                    <mxGeometry x="2353" y="1124.95" width="40" height="20" as="geometry"/>
                </mxCell>
                <mxCell id="lP6UJAzxdFz-D2vpFwy4-255" value="" style="endArrow=none;html=1;strokeWidth=4;fontSize=33;" parent="1" edge="1">
                    <mxGeometry width="50" height="50" relative="1" as="geometry">
                        <mxPoint x="2670" y="1281" as="sourcePoint"/>
                        <mxPoint x="2706" y="1071" as="targetPoint"/>
                    </mxGeometry>
                </mxCell>
                <mxCell id="lP6UJAzxdFz-D2vpFwy4-256" value="125" style="text;html=1;strokeColor=none;fillColor=none;align=center;verticalAlign=middle;whiteSpace=wrap;rounded=0;fontSize=33;fontStyle=1;strokeWidth=4;" parent="1" vertex="1">
                    <mxGeometry x="2696" y="1249.05" width="40" height="20" as="geometry"/>
                </mxCell>
                <mxCell id="lP6UJAzxdFz-D2vpFwy4-257" value="&lt;span style=&quot;&quot;&gt;122&lt;/span&gt;" style="text;html=1;strokeColor=none;fillColor=none;align=center;verticalAlign=middle;whiteSpace=wrap;rounded=0;fontSize=33;fontStyle=0;fontColor=#FF0000;strokeWidth=4;" parent="1" vertex="1">
                    <mxGeometry x="2720" y="1061" width="40" height="20" as="geometry"/>
                </mxCell>
                <mxCell id="lP6UJAzxdFz-D2vpFwy4-258" value="105" style="text;html=1;strokeColor=none;fillColor=none;align=center;verticalAlign=middle;whiteSpace=wrap;rounded=0;fontSize=33;fontStyle=1;strokeWidth=4;" parent="1" vertex="1">
                    <mxGeometry x="2800" y="1299" width="40" height="20" as="geometry"/>
                </mxCell>
                <mxCell id="lP6UJAzxdFz-D2vpFwy4-259" value="104" style="text;html=1;strokeColor=none;fillColor=none;align=center;verticalAlign=middle;whiteSpace=wrap;rounded=0;fontSize=33;fontStyle=1;strokeWidth=4;" parent="1" vertex="1">
                    <mxGeometry x="2800" y="1412" width="40" height="20" as="geometry"/>
                </mxCell>
                <mxCell id="lP6UJAzxdFz-D2vpFwy4-260" value="103" style="text;html=1;strokeColor=none;fillColor=none;align=center;verticalAlign=middle;whiteSpace=wrap;rounded=0;fontSize=33;fontStyle=1;strokeWidth=4;" parent="1" vertex="1">
                    <mxGeometry x="2790" y="1501" width="40" height="20" as="geometry"/>
                </mxCell>
                <mxCell id="lP6UJAzxdFz-D2vpFwy4-261" value="" style="endArrow=none;html=1;strokeWidth=4;fontSize=33;" parent="1" edge="1">
                    <mxGeometry width="50" height="50" relative="1" as="geometry">
                        <mxPoint x="2530" y="1370" as="sourcePoint"/>
                        <mxPoint x="2540" y="1261" as="targetPoint"/>
                    </mxGeometry>
                </mxCell>
                <mxCell id="lP6UJAzxdFz-D2vpFwy4-262" value="110" style="text;html=1;strokeColor=none;fillColor=none;align=center;verticalAlign=middle;whiteSpace=wrap;rounded=0;fontSize=33;fontStyle=1;strokeWidth=4;" parent="1" vertex="1">
                    <mxGeometry x="2565" y="1284" width="40" height="20" as="geometry"/>
                </mxCell>
                <mxCell id="lP6UJAzxdFz-D2vpFwy4-263" value="4138" style="text;html=1;strokeColor=none;fillColor=none;align=center;verticalAlign=middle;whiteSpace=wrap;rounded=0;fontSize=33;fontStyle=1;strokeWidth=4;" parent="1" vertex="1">
                    <mxGeometry x="2560" y="1360" width="40" height="20" as="geometry"/>
                </mxCell>
                <mxCell id="lP6UJAzxdFz-D2vpFwy4-264" value="4134" style="text;html=1;strokeColor=none;fillColor=none;align=center;verticalAlign=middle;whiteSpace=wrap;rounded=0;fontSize=33;fontStyle=1;strokeWidth=4;" parent="1" vertex="1">
                    <mxGeometry x="2466.59" y="1359" width="40" height="20" as="geometry"/>
                </mxCell>
                <mxCell id="lP6UJAzxdFz-D2vpFwy4-265" value="" style="endArrow=none;html=1;strokeWidth=4;fontSize=33;" parent="1" edge="1">
                    <mxGeometry width="50" height="50" relative="1" as="geometry">
                        <mxPoint x="2219" y="1531.8333333333333" as="sourcePoint"/>
                        <mxPoint x="2317" y="1139" as="targetPoint"/>
                        <Array as="points">
                            <mxPoint x="2270" y="1371"/>
                        </Array>
                    </mxGeometry>
                </mxCell>
                <mxCell id="lP6UJAzxdFz-D2vpFwy4-268" value="" style="endArrow=none;html=1;strokeWidth=4;fontSize=33;" parent="1" edge="1">
                    <mxGeometry width="50" height="50" relative="1" as="geometry">
                        <mxPoint x="2135" y="1894.3333333333333" as="sourcePoint"/>
                        <mxPoint x="2400" y="1231" as="targetPoint"/>
                        <Array as="points">
                            <mxPoint x="2180" y="1841"/>
                            <mxPoint x="2200" y="1791"/>
                            <mxPoint x="2200" y="1761"/>
                            <mxPoint x="2170" y="1651"/>
                            <mxPoint x="2180" y="1631"/>
                            <mxPoint x="2320" y="1681"/>
                            <mxPoint x="2380" y="1441"/>
                            <mxPoint x="2390" y="1311"/>
                        </Array>
                    </mxGeometry>
                </mxCell>
                <mxCell id="lP6UJAzxdFz-D2vpFwy4-269" value="60" style="text;html=1;strokeColor=none;fillColor=none;align=center;verticalAlign=middle;whiteSpace=wrap;rounded=0;fontSize=33;fontStyle=1;strokeWidth=4;" parent="1" vertex="1">
                    <mxGeometry x="2088" y="1884" width="40" height="20" as="geometry"/>
                </mxCell>
                <mxCell id="lP6UJAzxdFz-D2vpFwy4-270" value="63" style="text;html=1;strokeColor=none;fillColor=none;align=center;verticalAlign=middle;whiteSpace=wrap;rounded=0;fontSize=33;fontStyle=1;strokeWidth=4;" parent="1" vertex="1">
                    <mxGeometry x="2179" y="1846" width="40" height="20" as="geometry"/>
                </mxCell>
                <mxCell id="lP6UJAzxdFz-D2vpFwy4-271" value="62" style="text;html=1;strokeColor=none;fillColor=none;align=center;verticalAlign=middle;whiteSpace=wrap;rounded=0;fontSize=33;fontStyle=1;strokeWidth=4;" parent="1" vertex="1">
                    <mxGeometry x="2144" y="1786" width="40" height="20" as="geometry"/>
                </mxCell>
                <mxCell id="lP6UJAzxdFz-D2vpFwy4-272" value="61" style="text;html=1;strokeColor=none;fillColor=none;align=center;verticalAlign=middle;whiteSpace=wrap;rounded=0;fontSize=33;fontStyle=1;strokeWidth=4;" parent="1" vertex="1">
                    <mxGeometry x="2206" y="1736" width="40" height="20" as="geometry"/>
                </mxCell>
                <mxCell id="lP6UJAzxdFz-D2vpFwy4-273" value="58" style="text;html=1;strokeColor=none;fillColor=none;align=center;verticalAlign=middle;whiteSpace=wrap;rounded=0;fontSize=33;fontStyle=1;strokeWidth=4;" parent="1" vertex="1">
                    <mxGeometry x="2184" y="1675" width="40" height="20" as="geometry"/>
                </mxCell>
                <mxCell id="lP6UJAzxdFz-D2vpFwy4-274" value="4048" style="text;html=1;strokeColor=none;fillColor=none;align=center;verticalAlign=middle;whiteSpace=wrap;rounded=0;fontSize=33;fontStyle=1;strokeWidth=4;" parent="1" vertex="1">
                    <mxGeometry x="2166" y="1598" width="40" height="20" as="geometry"/>
                </mxCell>
                <mxCell id="lP6UJAzxdFz-D2vpFwy4-275" value="115" style="text;html=1;strokeColor=none;fillColor=none;align=center;verticalAlign=middle;whiteSpace=wrap;rounded=0;fontSize=33;fontStyle=1;strokeWidth=4;" parent="1" vertex="1">
                    <mxGeometry x="2160" y="1501" width="40" height="20" as="geometry"/>
                </mxCell>
                <mxCell id="lP6UJAzxdFz-D2vpFwy4-276" value="116" style="text;html=1;strokeColor=none;fillColor=none;align=center;verticalAlign=middle;whiteSpace=wrap;rounded=0;fontSize=33;fontStyle=1;strokeWidth=4;" parent="1" vertex="1">
                    <mxGeometry x="2246" y="1488" width="40" height="20" as="geometry"/>
                </mxCell>
                <mxCell id="lP6UJAzxdFz-D2vpFwy4-277" value="114" style="text;html=1;strokeColor=none;fillColor=none;align=center;verticalAlign=middle;whiteSpace=wrap;rounded=0;fontSize=33;fontStyle=1;strokeWidth=4;" parent="1" vertex="1">
                    <mxGeometry x="2200" y="1412" width="40" height="20" as="geometry"/>
                </mxCell>
                <mxCell id="lP6UJAzxdFz-D2vpFwy4-278" value="&lt;span style=&quot;&quot;&gt;&lt;span&gt;113&lt;/span&gt;&lt;/span&gt;" style="text;html=1;strokeColor=none;fillColor=none;align=center;verticalAlign=middle;whiteSpace=wrap;rounded=0;fontSize=33;fontStyle=0;fontColor=#FF0000;strokeWidth=4;" parent="1" vertex="1">
                    <mxGeometry x="2213" y="1361" width="40" height="20" as="geometry"/>
                </mxCell>
                <mxCell id="lP6UJAzxdFz-D2vpFwy4-279" value="112" style="text;html=1;strokeColor=none;fillColor=none;align=center;verticalAlign=middle;whiteSpace=wrap;rounded=0;fontSize=33;fontStyle=1;strokeWidth=4;" parent="1" vertex="1">
                    <mxGeometry x="2224" y="1302" width="40" height="20" as="geometry"/>
                </mxCell>
                <mxCell id="lP6UJAzxdFz-D2vpFwy4-280" value="51" style="text;html=1;strokeColor=none;fillColor=none;align=center;verticalAlign=middle;whiteSpace=wrap;rounded=0;fontSize=33;fontStyle=1;strokeWidth=4;" parent="1" vertex="1">
                    <mxGeometry x="2347" y="1214" width="40" height="20" as="geometry"/>
                </mxCell>
                <mxCell id="lP6UJAzxdFz-D2vpFwy4-281" value="53" style="text;html=1;strokeColor=none;fillColor=none;align=center;verticalAlign=middle;whiteSpace=wrap;rounded=0;fontSize=33;fontStyle=1;strokeWidth=4;" parent="1" vertex="1">
                    <mxGeometry x="2332" y="1351" width="40" height="20" as="geometry"/>
                </mxCell>
                <mxCell id="lP6UJAzxdFz-D2vpFwy4-282" value="&lt;b&gt;91&lt;/b&gt;" style="text;html=1;strokeColor=none;fillColor=none;align=center;verticalAlign=middle;whiteSpace=wrap;rounded=0;fontSize=33;strokeWidth=4;" parent="1" vertex="1">
                    <mxGeometry x="2387" y="1381" width="40" height="20" as="geometry"/>
                </mxCell>
                <mxCell id="lP6UJAzxdFz-D2vpFwy4-283" value="109" style="text;html=1;strokeColor=none;fillColor=none;align=center;verticalAlign=middle;whiteSpace=wrap;rounded=0;fontSize=33;fontStyle=1;strokeWidth=4;" parent="1" vertex="1">
                    <mxGeometry x="2387" y="1460.05" width="40" height="20" as="geometry"/>
                </mxCell>
                <mxCell id="lP6UJAzxdFz-D2vpFwy4-284" value="57" style="text;html=1;strokeColor=none;fillColor=none;align=center;verticalAlign=middle;whiteSpace=wrap;rounded=0;fontSize=33;fontStyle=1;strokeWidth=4;" parent="1" vertex="1">
                    <mxGeometry x="2372" y="1491" width="40" height="29" as="geometry"/>
                </mxCell>
                <mxCell id="lP6UJAzxdFz-D2vpFwy4-286" value="" style="endArrow=none;html=1;strokeWidth=4;fontSize=33;" parent="1" edge="1">
                    <mxGeometry width="50" height="50" relative="1" as="geometry">
                        <mxPoint x="2840" y="1881" as="sourcePoint"/>
                        <mxPoint x="2320" y="1681" as="targetPoint"/>
                        <Array as="points">
                            <mxPoint x="2740" y="1781"/>
                            <mxPoint x="2530" y="1751"/>
                            <mxPoint x="2420" y="1721"/>
                        </Array>
                    </mxGeometry>
                </mxCell>
                <mxCell id="lP6UJAzxdFz-D2vpFwy4-288" value="" style="endArrow=none;html=1;strokeWidth=4;fontSize=33;" parent="1" edge="1">
                    <mxGeometry width="50" height="50" relative="1" as="geometry">
                        <mxPoint x="2731" y="1781" as="sourcePoint"/>
                        <mxPoint x="2784" y="1651" as="targetPoint"/>
                        <Array as="points"/>
                    </mxGeometry>
                </mxCell>
                <mxCell id="lP6UJAzxdFz-D2vpFwy4-289" value="87" style="text;html=1;strokeColor=none;fillColor=none;align=center;verticalAlign=middle;whiteSpace=wrap;rounded=0;fontSize=33;fontStyle=1;strokeWidth=4;" parent="1" vertex="1">
                    <mxGeometry x="2605" y="1725" width="44" height="36" as="geometry"/>
                </mxCell>
                <mxCell id="lP6UJAzxdFz-D2vpFwy4-290" value="86" style="text;html=1;strokeColor=none;fillColor=none;align=center;verticalAlign=middle;whiteSpace=wrap;rounded=0;fontSize=33;fontStyle=1;strokeWidth=4;" parent="1" vertex="1">
                    <mxGeometry x="2313" y="1701" width="40" height="20" as="geometry"/>
                </mxCell>
                <mxCell id="lP6UJAzxdFz-D2vpFwy4-291" value="90" style="text;html=1;strokeColor=none;fillColor=none;align=center;verticalAlign=middle;whiteSpace=wrap;rounded=0;fontSize=33;fontStyle=1;strokeWidth=4;" parent="1" vertex="1">
                    <mxGeometry x="2790" y="1651" width="40" height="20" as="geometry"/>
                </mxCell>
                <mxCell id="lP6UJAzxdFz-D2vpFwy4-292" value="&lt;span style=&quot;&quot;&gt;&lt;span&gt;108&lt;/span&gt;&lt;/span&gt;" style="text;html=1;strokeColor=none;fillColor=none;align=center;verticalAlign=middle;whiteSpace=wrap;rounded=0;fontSize=33;fontStyle=0;fontColor=#FF0000;strokeWidth=4;" parent="1" vertex="1">
                    <mxGeometry x="2820" y="1891" width="40" height="20" as="geometry"/>
                </mxCell>
                <mxCell id="lP6UJAzxdFz-D2vpFwy4-293" value="120" style="text;html=1;strokeColor=none;fillColor=none;align=center;verticalAlign=middle;whiteSpace=wrap;rounded=0;fontSize=33;fontStyle=1;strokeWidth=4;" parent="1" vertex="1">
                    <mxGeometry x="2760" y="1264" width="40" height="20" as="geometry"/>
                </mxCell>
                <mxCell id="2" value="&lt;b style=&quot;font-size: 27px&quot;&gt;Motocros&lt;/b&gt;" style="rounded=1;whiteSpace=wrap;html=1;strokeWidth=4;fontSize=27;fillColor=#ffff88;strokeColor=#36393d;" parent="1" vertex="1">
                    <mxGeometry x="620" y="121" width="140" height="44.5" as="geometry"/>
                </mxCell>
                <mxCell id="3" value="&lt;b style=&quot;font-size: 27px&quot;&gt;Almeriplant&lt;/b&gt;" style="rounded=1;whiteSpace=wrap;html=1;strokeWidth=4;fontSize=27;fillColor=#ffff88;strokeColor=#36393d;" parent="1" vertex="1">
                    <mxGeometry x="793.21" y="721" width="169.59" height="40" as="geometry"/>
                </mxCell>
                <mxCell id="4" value="&lt;b style=&quot;font-size: 27px&quot;&gt;Planta&lt;/b&gt;" style="rounded=1;whiteSpace=wrap;html=1;strokeWidth=4;fontSize=27;fillColor=#ffff88;strokeColor=#36393d;" parent="1" vertex="1">
                    <mxGeometry x="140" y="742.95" width="108" height="40" as="geometry"/>
                </mxCell>
                <mxCell id="5" value="" style="verticalLabelPosition=bottom;align=center;html=1;verticalAlign=top;pointerEvents=1;dashed=0;shape=mxgraph.pid2valves.valve;valveType=gate;defState=closed;strokeWidth=4;fillColor=none;fontSize=17;rotation=-150;strokeColor=#0000FF;" parent="1" vertex="1">
                    <mxGeometry x="580.5" y="431.04999999999995" width="40" height="21.95" as="geometry"/>
                </mxCell>
                <mxCell id="6" value="" style="verticalLabelPosition=bottom;align=center;html=1;verticalAlign=top;pointerEvents=1;dashed=0;shape=mxgraph.pid2valves.valve;valveType=gate;defState=closed;strokeWidth=4;fillColor=none;fontSize=17;rotation=272;strokeColor=#0000FF;" parent="1" vertex="1">
                    <mxGeometry x="560.5" y="377.05000000000007" width="40" height="21.95" as="geometry"/>
                </mxCell>
                <mxCell id="7" value="" style="verticalLabelPosition=bottom;align=center;html=1;verticalAlign=top;pointerEvents=1;dashed=0;shape=mxgraph.pid2valves.valve;valveType=gate;defState=closed;strokeWidth=4;fillColor=none;fontSize=17;rotation=157;strokeColor=#0000FF;" parent="1" vertex="1">
                    <mxGeometry x="704.5" y="699.0000000000001" width="40" height="21.95" as="geometry"/>
                </mxCell>
                <mxCell id="8" value="" style="verticalLabelPosition=bottom;align=center;html=1;verticalAlign=top;pointerEvents=1;dashed=0;shape=mxgraph.pid2valves.valve;valveType=gate;defState=closed;strokeWidth=4;fillColor=none;fontSize=17;rotation=244;strokeColor=#0000FF;" parent="1" vertex="1">
                    <mxGeometry x="779.5" y="878" width="40" height="21.95" as="geometry"/>
                </mxCell>
                <mxCell id="9" value="&lt;b style=&quot;font-size: 27px&quot;&gt;Taberneros&lt;/b&gt;" style="rounded=1;whiteSpace=wrap;html=1;strokeWidth=4;fontSize=27;fillColor=#ffff88;strokeColor=#36393d;" parent="1" vertex="1">
                    <mxGeometry x="1060" y="1104.95" width="169.59" height="40" as="geometry"/>
                </mxCell>
                <mxCell id="10" value="&lt;b style=&quot;font-size: 27px&quot;&gt;Ferris&lt;/b&gt;" style="rounded=1;whiteSpace=wrap;html=1;strokeWidth=4;fontSize=27;fillColor=#ffff88;strokeColor=#36393d;" parent="1" vertex="1">
                    <mxGeometry x="1370" y="1036.95" width="116" height="40" as="geometry"/>
                </mxCell>
                <mxCell id="11" value="&lt;b style=&quot;font-size: 27px&quot;&gt;Carpintería&lt;/b&gt;" style="rounded=1;whiteSpace=wrap;html=1;strokeWidth=4;fontSize=27;fillColor=#ffff88;strokeColor=#36393d;" parent="1" vertex="1">
                    <mxGeometry x="1869" y="934" width="160" height="46" as="geometry"/>
                </mxCell>
                <mxCell id="12" value="&lt;b style=&quot;font-size: 27px&quot;&gt;Ramal del Médico&lt;/b&gt;" style="rounded=1;whiteSpace=wrap;html=1;strokeWidth=4;fontSize=27;fillColor=#ffff88;strokeColor=#36393d;" parent="1" vertex="1">
                    <mxGeometry x="1041" y="1491" width="173" height="70" as="geometry"/>
                </mxCell>
                <mxCell id="13" value="&lt;b style=&quot;font-size: 27px&quot;&gt;Teniente&lt;/b&gt;" style="rounded=1;whiteSpace=wrap;html=1;strokeWidth=4;fontSize=27;fillColor=#ffff88;strokeColor=#36393d;" parent="1" vertex="1">
                    <mxGeometry x="1979" y="1302" width="140" height="46" as="geometry"/>
                </mxCell>
                <mxCell id="14" value="&lt;b style=&quot;font-size: 27px&quot;&gt;Aljibe el Salvador&lt;/b&gt;" style="rounded=1;whiteSpace=wrap;html=1;strokeWidth=4;fontSize=27;fillColor=#ffff88;strokeColor=#36393d;" parent="1" vertex="1">
                    <mxGeometry x="2469" y="1115.5" width="148" height="71" as="geometry"/>
                </mxCell>
                <mxCell id="15" value="" style="verticalLabelPosition=bottom;align=center;html=1;verticalAlign=top;pointerEvents=1;dashed=0;shape=mxgraph.pid2valves.valve;valveType=gate;defState=closed;strokeWidth=4;fillColor=none;fontSize=17;rotation=-170;fontColor=#0000FF;strokeColor=#0000FF;" parent="1" vertex="1">
                    <mxGeometry x="2292" y="1155" width="40" height="21.95" as="geometry"/>
                </mxCell>
                <mxCell id="16" value="" style="verticalLabelPosition=bottom;align=center;html=1;verticalAlign=top;pointerEvents=1;dashed=0;shape=mxgraph.pid2valves.valve;valveType=gate;defState=closed;strokeWidth=4;fillColor=none;fontSize=17;rotation=-165;fontColor=#0000FF;strokeColor=#0000FF;" parent="1" vertex="1">
                    <mxGeometry x="2139" y="1123" width="40" height="21.95" as="geometry"/>
                </mxCell>
                <mxCell id="17" value="&lt;b style=&quot;font-size: 27px&quot;&gt;Balsa las Viudas&lt;/b&gt;" style="rounded=1;whiteSpace=wrap;html=1;strokeWidth=4;fontSize=27;fillColor=#ffff88;strokeColor=#36393d;" parent="1" vertex="1">
                    <mxGeometry x="2193" y="20" width="151" height="78" as="geometry"/>
                </mxCell>
                <mxCell id="19" value="83" style="text;html=1;strokeColor=none;fillColor=none;align=center;verticalAlign=middle;whiteSpace=wrap;rounded=0;fontSize=33;fontStyle=0;fontColor=#FF0000;strokeWidth=4;" parent="1" vertex="1">
                    <mxGeometry x="2482" y="703.01" width="45" height="29.03" as="geometry"/>
                </mxCell>
                <mxCell id="21" value="SECTOR -VB" style="rounded=1;whiteSpace=wrap;html=1;strokeWidth=4;fillColor=none;fontSize=41;fontStyle=1" parent="1" vertex="1">
                    <mxGeometry x="810" y="1891" width="294" height="54" as="geometry"/>
                </mxCell>
                <mxCell id="22" value="54" style="text;html=1;strokeColor=none;fillColor=none;align=center;verticalAlign=middle;whiteSpace=wrap;rounded=0;fontSize=33;fontStyle=1;strokeWidth=4;" vertex="1" parent="1">
                    <mxGeometry x="2344" y="1614" width="40" height="29" as="geometry"/>
                </mxCell>
                <mxCell id="23" value="119" style="text;html=1;strokeColor=none;fillColor=none;align=center;verticalAlign=middle;whiteSpace=wrap;rounded=0;fontSize=33;fontStyle=1;strokeWidth=4;" vertex="1" parent="1">
                    <mxGeometry x="2352" y="1585" width="60" height="29" as="geometry"/>
                </mxCell>
                <mxCell id="24" value="124" style="text;html=1;strokeColor=none;fillColor=none;align=center;verticalAlign=middle;whiteSpace=wrap;rounded=0;fontSize=33;fontStyle=1;strokeWidth=4;" vertex="1" parent="1">
                    <mxGeometry x="2362" y="1552" width="60" height="29" as="geometry"/>
                </mxCell>
                <mxCell id="25" value="88" style="text;html=1;strokeColor=none;fillColor=none;align=center;verticalAlign=middle;whiteSpace=wrap;rounded=0;fontSize=33;fontStyle=1;strokeWidth=4;" vertex="1" parent="1">
                    <mxGeometry x="2650" y="1728" width="44" height="36" as="geometry"/>
                </mxCell>
                <mxCell id="26" value="118" style="text;html=1;strokeColor=none;fillColor=none;align=center;verticalAlign=middle;whiteSpace=wrap;rounded=0;fontSize=33;fontStyle=1;strokeWidth=4;" vertex="1" parent="1">
                    <mxGeometry x="1889" y="583" width="50" height="35" as="geometry"/>
                </mxCell>
            </root>
        </mxGraphModel>
    </diagram>
</mxfile>